<svg width="828" height="700" viewBox="0 0 828 700" fill="none" xmlns="http://www.w3.org/2000/svg">
<path d="M0.245626 632.564C-5.28107 561.147 83.7821 535.91 133.773 570.352C138.941 573.912 161.135 595.374 156.102 601.313L156.054 601.371C154.403 602.688 130.164 610.845 128.764 610.621C126.081 610.177 117.884 598.351 113.865 595.324C91.7198 578.584 48.8261 583.371 37.5611 611.495C13.2155 672.301 114.421 690.003 133.351 639.314C135.429 638.972 160.652 647.241 161.518 648.495C163.496 651.344 157.215 662.158 155.336 665.172C120.047 721.66 5.97093 706.515 0.245626 632.564ZM469.535 555.998C505.327 552.086 543.084 563.583 558.651 598.97C558.206 600.996 534.131 610.849 531.349 610.583C527.491 610.215 521.902 600.325 517.884 596.882C495.454 577.698 448.345 582.7 438.033 613.901C420.723 666.286 496.135 684.647 525.415 654.7C528.876 651.167 532.969 640.328 535.924 639.745C537.692 639.391 563.09 647.166 564.104 648.482C552.778 693.739 500.524 705.199 460.969 696.234C378.545 677.556 384.692 566.403 467.832 556.184L469.535 555.998ZM618.927 557.298C619.088 557.298 621.154 559.426 621.154 559.578V664.552C621.154 664.715 623.216 666.829 623.379 666.831H692.474V695.74H589.969C590.08 691.852 588.683 688.256 588.424 684.381C586.26 651.636 586.668 604.657 588.424 571.696C588.658 567.403 588.61 557.298 593.679 557.298H618.927ZM217.853 557.285C218.015 557.286 220.078 559.413 220.078 559.564V695.726H187.398V558.804C188.857 559.298 190.626 557.285 191.108 557.285H217.853ZM262.428 557.272C283.559 557.272 308.735 555.486 329.272 557.272L330.816 557.429C363.049 560.677 382.984 577.112 379.041 612.824C376.851 632.641 362.52 639.125 346.917 645.38C345.384 646 344.37 644.57 344.876 647.786L380.45 690.801L382.007 695.726H347.102L310.07 649.976C305.31 647.025 298.31 649.153 292.882 648.557V693.434C292.882 693.599 290.807 695.713 290.657 695.714H260.203V559.552C260.205 559.385 262.264 557.276 262.428 557.272ZM822.463 557.298C822.628 557.302 824.689 559.413 824.689 559.578V587.726L824.676 587.714H752.626C748.819 587.715 750.884 606.822 750.401 610.532H820.225V640.961H752.639C749.264 640.961 749.264 666.831 752.639 666.831H826.172V691.927C826.172 692.181 828.732 695.726 825.431 695.726H719.958C719.795 695.723 717.737 693.603 717.734 693.448V558.818C719.193 559.312 720.961 557.298 721.443 557.298H822.463ZM292.869 621.181H326.302C334.142 621.181 345.876 614.102 346.259 605.074C346.568 597.704 337.208 587.714 330.754 587.714H292.869V621.181ZM300.302 6.58276C300.314 51.9276 286.725 94.9307 261.427 131.881C259.981 133.994 257.904 134.969 257.223 135.894C249.656 146.176 241.062 154.078 234.187 163.271C233.05 164.804 231.331 165.184 231.974 167.843H300.302V406.687H431.022V471.343C431.022 471.66 433.519 474.104 433.977 473.623C434.006 473.55 607.369 29.4011 611.51 29.4011L611.522 29.4138H686.539C681.111 47.8757 673.507 66.1097 666.434 84.1287C637.081 158.858 508.177 482.272 508.066 482.55L89.3589 481.233V406.687H226.768L228.314 172.414C226.682 170.059 225.866 171.603 224.073 172.679C219.98 175.123 215.17 180.327 210.756 183.392C189.686 198.004 175.826 204.299 151.751 211.96C131.003 218.557 111.702 224.268 89.3589 222.609V149.583C99.2748 147.836 109.192 147.861 119.121 145.835C174.342 134.578 221.377 81.2674 227.486 24.0564C227.832 20.8017 226.237 6.58288 229.736 6.58276H300.302ZM650.075 271.234C692.981 267.79 727.811 286.759 748.918 324.532L753.37 333.661C789.686 427.594 689.592 513.269 607.008 459.971C599.576 455.172 578.137 435.964 575.701 428.024C574.242 423.276 621.376 314.768 635.669 276.26C637.562 271.981 645.661 271.589 650.075 271.234ZM452.98 0.9226C494.699 -4.1804 534.861 11.8377 555.411 50.1677L492.436 202.589C418.174 218.089 355.113 153.103 372.609 76.8357C381.067 39.9998 415.762 5.48071 452.98 0.9226Z" fill="white"/>
</svg>
