<svg width="61" height="61" viewBox="0 0 61 61" fill="none" xmlns="http://www.w3.org/2000/svg">
<rect width="60.5" height="60.5" rx="16.323" fill="black"/>
<path d="M42.3872 15.4537L39.751 21.8233L35.1696 32.8917L33.7324 36.3633H14.6602V32.8917H21.0546V21.8889C19.3303 23.3973 17.1046 24.3458 14.6602 24.4517V21.061C17.797 20.8585 20.3736 18.5985 21.0546 15.6164C21.067 15.5623 21.0786 15.5082 21.0897 15.4537C21.1623 15.0973 21.2076 14.7312 21.2237 14.3577H24.6121C24.6015 14.7279 24.5709 15.0936 24.5219 15.4537C24.4947 15.6576 24.4614 15.8596 24.4221 16.0593C23.9769 18.3322 22.7926 20.3408 21.129 21.8233H24.4221V32.8917H30.4518V35.5068L31.5339 32.8917L36.1153 21.8233L36.3479 21.2621L36.8952 19.9395L38.7521 15.4537H42.3872Z" fill="white"/>
<path d="M36.2684 16.2407L33.9576 21.8234L33.2896 23.4367C32.973 23.5042 32.6443 23.5394 32.3078 23.5394C31.6495 23.5394 31.0227 23.4048 30.4532 23.1612C29.7547 22.8631 29.1427 22.4008 28.6657 21.8234C27.9898 21.0066 27.584 19.9591 27.584 18.8159C27.584 17.5003 28.1216 16.31 28.9897 15.4539C29.4085 15.0401 29.9041 14.7045 30.4532 14.4702C30.548 14.4295 30.6446 14.3921 30.7426 14.3578C31.2326 14.1854 31.7591 14.092 32.3078 14.092C32.8565 14.092 33.383 14.1854 33.873 14.3578C34.5382 14.5908 35.1349 14.969 35.6259 15.4539C35.8672 15.6915 36.0826 15.9554 36.2684 16.2407Z" fill="white"/>
<path d="M45.8388 31.3105C45.8407 31.8652 45.7473 32.3968 45.573 32.8919C44.9277 34.7317 43.1753 36.0506 41.1155 36.0506C39.3926 36.0506 37.8857 35.1283 37.0605 33.7508L37.4165 32.8919L39.9603 26.7452C40.3301 26.6522 40.717 26.6028 41.1155 26.6028C43.718 26.6028 45.83 28.7079 45.8388 31.3105Z" fill="white"/>
<path d="M37.3083 44.0447C36.9464 45.0779 36.0233 45.8979 34.8477 46.2377C34.4659 46.3482 34.0582 46.4078 33.6339 46.4078C33.2095 46.4078 32.8013 46.3482 32.42 46.2377C30.8936 45.7967 29.793 44.5463 29.793 43.0726C29.793 41.512 31.0281 40.2014 32.6959 39.8381C32.9959 39.7725 33.3103 39.7378 33.6339 39.7378C33.9574 39.7378 34.2713 39.7725 34.5713 39.8381C35.7653 40.0979 36.737 40.8435 37.1932 41.8184L35.7797 42.3168C35.4362 41.5808 34.6046 41.0617 33.6339 41.0617C32.3548 41.0617 31.318 41.9622 31.318 43.0726C31.318 44.1829 32.3548 45.0834 33.6339 45.0834C34.6776 45.0834 35.5605 44.4834 35.8495 43.6587L37.3083 44.0447Z" fill="white"/>
<path d="M28.7637 46.0098L27.1195 44.0216C27.0959 43.8728 27.1426 43.9389 27.2138 43.9102C27.9349 43.6209 28.5973 43.3213 28.6985 42.4051C28.8839 40.7298 27.9321 39.9727 26.403 39.8381H23.2051V46.2377H24.7157V44.0572C24.9667 44.0845 25.2903 43.9865 25.5104 44.1229L27.2221 46.2377H28.8358L28.7637 46.0098ZM26.2606 42.7915H24.7153V41.2443H26.4668C26.7649 41.2443 27.1976 41.7066 27.1833 42.0473C27.1657 42.4643 26.623 42.7915 26.2606 42.7915Z" fill="white"/>
<path d="M18.7209 44.0448C18.359 45.078 17.4358 45.8981 16.2599 46.2378C15.8785 46.3483 15.4703 46.4079 15.046 46.4079C14.6216 46.4079 14.2134 46.3483 13.8321 46.2378C12.3057 45.7968 11.2051 44.5464 11.2051 43.0727C11.2051 41.5121 12.4402 40.2016 14.1081 39.8382C14.4081 39.7726 14.7224 39.7379 15.046 39.7379C15.3695 39.7379 15.6839 39.7726 15.9839 39.8382C17.1774 40.098 18.1496 40.8437 18.6058 41.8186L17.1922 42.3164C16.8483 41.5805 16.0167 41.0618 15.046 41.0618C13.7669 41.0618 12.7301 41.9623 12.7301 43.0727C12.7301 44.1831 13.7669 45.0836 15.046 45.0836C16.0902 45.0836 16.9731 44.4835 17.262 43.6589L18.7209 44.0448Z" fill="white"/>
<path d="M21.3495 39.8381H19.8389V46.2377H21.3495V39.8381Z" fill="white"/>
<path d="M45.8612 41.3054V42.241C45.8612 42.2748 45.8885 42.3021 45.9223 42.3021H49.0938V43.7087H45.9223C45.8885 43.7087 45.8612 43.736 45.8612 43.7698V44.771C45.8612 44.8048 45.8885 44.832 45.9223 44.832H49.2953V46.2387H44.3506V39.8391H49.2953V41.2453H45.9223C45.8885 41.2453 45.8612 41.2726 45.8612 41.3063V41.3054Z" fill="white"/>
<path d="M43.2021 44.8311V46.2377H38.3701V39.8381H39.8808V44.77C39.8808 44.8038 39.908 44.8311 39.9418 44.8311H43.2021Z" fill="white"/>
</svg>
