<svg width="144" height="91" viewBox="0 0 144 91" fill="none" xmlns="http://www.w3.org/2000/svg">
<g clip-path="url(#clip0_622_273)">
<path d="M81.3471 69.1006C79.8702 64.6307 73.7666 62.5656 70.4337 66.3167C70.3945 65.9377 70.5906 64.8529 70.1723 64.7222H66.0161V65.7808H67.2578V87.3461L66.2252 87.5422L66.1991 88.4048H71.6754V87.3461H70.6167V79.3082C70.6167 79.2297 70.1593 78.9945 70.6951 79.0468C77.7398 83.4644 83.6735 76.1844 81.3471 69.1006ZM76.9425 77.6875C75.2304 80.1446 71.7669 79.3866 70.8781 76.5635C70.3945 75.0082 70.4599 70.0808 70.9565 68.5124C71.414 67.0617 72.4857 65.7155 74.1064 65.6501C78.9161 65.4671 78.9161 74.8513 76.9425 77.6875Z" fill="black"/>
<path d="M102.677 64.7221C103.056 64.9573 102.782 65.2318 102.742 65.5847C102.559 65.7546 101.749 65.3494 101.893 65.8461L105.762 74.9689L107.866 69.754C107.67 69.1005 106.415 65.7676 106.01 65.6239C105.735 65.5324 105.369 65.6239 105.069 65.5977V64.709H110.467L110.728 65.5977H109.839L109.918 66.3166L113.46 74.9689L116.361 67.4406C116.479 66.2904 116.505 65.5455 115.146 65.5977V64.7221H119.289C119.668 64.9442 119.407 65.2318 119.354 65.5847C118.283 65.4801 118.139 66.0944 117.76 66.9047C115.747 71.1524 114.388 75.7661 112.571 80.1053C112.31 80.4974 112.074 79.8439 111.97 79.6348C110.65 76.9685 109.826 73.7926 108.493 71.0871L104.428 80.2752L98.3509 65.7154L97.2661 65.6108V64.7221H102.664H102.677Z" fill="black"/>
<path d="M90.1954 64.4215C80.8112 65.3756 80.8504 81.5954 92.4173 80.2623C101.462 79.2167 101.253 63.2975 90.1954 64.4215ZM91.0449 79.3735C86.8756 78.8507 86.4312 70.7604 87.7252 67.7805C88.2218 66.6434 89.0714 65.4933 90.3653 65.2972C92.3127 64.9835 93.685 66.4343 94.3908 68.0811C95.6586 71.0872 96.0768 80.0139 91.0449 79.3735Z" fill="black"/>
<path d="M123.353 72.6817V71.7929C125.784 71.8714 127.967 70.6559 127.967 67.9896C127.967 64.9705 124.83 64.2908 123.105 66.4996C121.511 68.5516 121.315 72.9039 122.556 75.1519C124.19 78.1188 128.346 79.1382 134.254 73.2176V75.2172C131.967 79.0598 129.157 80.027 126.804 80.2622C115.904 81.347 115.681 64.7483 125.379 64.3431C128.712 64.2124 131.705 65.8069 131.117 69.558C130.96 70.5905 129.692 71.5969 128.778 71.989C128.32 72.185 126.686 72.6555 126.268 72.6555H123.353V72.6817Z" fill="black"/>
<path d="M143.769 64.5522V67.5583C141.534 67.31 138.606 66.8525 137.495 69.3228C137.417 69.4927 137.051 70.5775 137.051 70.6428V79.0337L138.123 79.1121L138.293 79.9224H132.633L132.659 79.2297L133.705 78.9291C133.718 75.3349 133.653 71.7538 133.692 68.1595C133.692 67.3884 133.679 67.1139 133.666 65.82L132.463 65.5978L132.725 64.7091H137.051V67.8851C137.626 67.2185 138.031 66.5127 138.724 65.9377C140.162 64.7352 141.913 64.4085 143.769 64.5261V64.5522Z" fill="black"/>
<path d="M14.2724 78.9292V57.2723H9.75025V58.148C10.2338 58.1742 10.8089 57.9781 11.1487 58.4094V66.1599C9.07061 64.2125 5.26727 64.317 3.05846 65.99C-0.0913844 68.3687 -0.823298 73.3745 0.967277 76.7726C3.03232 80.7067 8.48247 81.9744 11.3186 78.158V80.2492L15.501 80.0793V79.2036C15.0828 79.2036 14.56 79.3343 14.2855 78.9422L14.2724 78.9292ZM9.65876 78.3279C6.90101 80.6021 4.33931 77.6483 3.86879 74.8906C3.42442 72.2766 3.82958 65.99 7.43687 65.8462C9.78946 65.7547 10.9657 68.1988 11.1357 70.2246C11.3186 72.3289 11.4101 76.8772 9.65876 78.3279Z" fill="black"/>
<path d="M59.128 67.8327C56.9454 64.4607 51.6782 63.4281 49.0642 66.8525V65.1142H44.8818V66.1597H46.0973V87.3722L45.0387 87.4506L44.8818 88.4178H50.4496L50.2928 87.4506L49.2341 87.3722V79.2035C50.8156 80.3667 52.2663 80.5758 54.2007 80.4321C60.056 79.9877 61.9642 72.2372 59.128 67.8458V67.8327ZM55.8867 77.3999C54.5405 79.9877 50.9593 79.8831 49.783 77.1777C49.1818 75.7661 49.2472 70.316 49.7046 68.7999C50.0837 67.5321 51.1031 66.2251 52.5016 66.016C57.3767 65.3102 57.3767 74.5245 55.8736 77.3999H55.8867Z" fill="black"/>
<path d="M21.4083 72.93V72.0543C23.238 72.1719 25.2247 71.4792 25.7997 69.571C27.0806 65.271 22.1271 63.8725 20.4542 68.2248C18.559 73.1652 21.3168 79.7394 27.3812 77.3999C28.1785 77.0862 29.0541 75.8968 29.1718 75.8838C29.4855 75.8315 29.9952 76.2628 29.9037 76.6157C29.4855 78.2886 26.7931 80.1576 25.1332 80.3798C14.0368 81.8306 13.8016 64.3823 24.1137 64.7351C27.159 64.8397 30.4526 66.9701 28.8712 70.3813C28.2438 71.7145 25.852 72.9169 24.4535 72.9169H21.4083V72.93Z" fill="black"/>
<path d="M35.8506 72.93V72.0543C38.8044 72.185 40.9609 70.499 40.2943 67.3492C39.8369 65.1665 37.1837 65.1142 35.8506 66.5781C34.06 68.5385 33.9293 72.747 35.001 75.0735C36.5041 78.3279 41.4837 78.7984 43.6141 75.8969L44.346 76.4589C42.1764 81.909 34.2038 81.6869 31.812 76.5243C28.9889 70.4467 33.4457 63.0884 40.5034 65.0489C44.529 66.1729 44.8557 70.9173 40.9348 72.368C40.608 72.4857 39.118 72.93 38.8828 72.93H35.8375H35.8506Z" fill="black"/>
<path d="M75.374 86.6404C75.374 85.0197 76.5503 83.5951 78.3147 83.5951C79.3081 83.5951 79.9093 83.8826 80.4974 84.3793L80.0661 84.8759C79.6087 84.4838 79.112 84.2094 78.2886 84.2094C76.9947 84.2094 76.0667 85.3072 76.0667 86.6142C76.0667 88.0258 76.9686 89.0714 78.3801 89.0714C79.0467 89.0714 79.674 88.81 80.0661 88.4832V87.0325H78.2886V86.4443H80.7065V88.7838C80.1576 89.2674 79.3473 89.6857 78.354 89.6857C76.5111 89.6857 75.374 88.3395 75.374 86.6665V86.6404Z" fill="black"/>
<path d="M85.2943 85.2288H85.987L84.1703 89.6987C83.8044 90.6005 83.3861 90.9272 82.7326 90.9272C82.3667 90.9272 82.1053 90.8488 81.8177 90.705L82.0399 90.1953C82.2491 90.2999 82.4451 90.3522 82.7196 90.3522C83.0986 90.3522 83.3469 90.1561 83.6083 89.5418L81.6348 85.2288H82.3405L83.9089 88.8361L85.2943 85.2288Z" fill="black"/>
<path d="M86.9932 85.2288H87.6336V85.9607C87.9211 85.5294 88.3002 85.1373 89.0321 85.1373C89.764 85.1373 90.1822 85.5164 90.4175 85.9999C90.7312 85.5164 91.1886 85.1373 91.9467 85.1373C92.94 85.1373 93.5543 85.8039 93.5543 86.8756V89.5549H92.9138V87.0325C92.9138 86.196 92.4956 85.7255 91.7898 85.7255C91.1363 85.7255 90.5874 86.2091 90.5874 87.0717V89.568H89.947V87.0194C89.947 86.2091 89.5157 85.7255 88.836 85.7255C88.1564 85.7255 87.6336 86.3005 87.6336 87.0847V89.5549H86.9932V85.2288Z" fill="black"/>
<path d="M100.86 88.7184C100.324 89.2935 99.7102 89.6333 98.939 89.6333C97.8804 89.6333 97.0962 88.9667 97.0962 87.9865C97.0962 87.1892 97.619 86.6272 98.5077 86.2743C98.1026 85.8038 97.9196 85.4509 97.9196 84.9804C97.9196 84.1962 98.5339 83.5688 99.4749 83.5688C100.298 83.5688 100.9 84.157 100.9 84.8889C100.9 85.647 100.377 86.1305 99.5141 86.4312L100.86 87.7904C101.122 87.4114 101.357 86.967 101.566 86.4834L102.115 86.7318C101.854 87.2807 101.592 87.7904 101.265 88.2087L102.285 89.2543L101.788 89.6333L100.873 88.6922L100.86 88.7184ZM100.468 88.3132L98.8998 86.6926C98.1156 86.9801 97.7758 87.4506 97.7758 87.9473C97.7758 88.5877 98.2725 89.0713 99.0044 89.0713C99.5533 89.0713 100.037 88.7837 100.468 88.3132ZM100.285 84.9673C100.285 84.4837 99.9324 84.1439 99.4618 84.1439C98.939 84.1439 98.5731 84.5099 98.5731 84.9935C98.5731 85.3594 98.7169 85.6078 99.1612 86.0913C99.9062 85.843 100.298 85.477 100.298 84.9804L100.285 84.9673Z" fill="black"/>
<path d="M105.892 83.6865H108.415C109.133 83.6865 109.709 83.9087 110.074 84.2747C110.362 84.5622 110.532 84.9674 110.532 85.4248C110.532 86.4181 109.865 86.9801 108.937 87.15L110.741 89.5418H109.931L108.232 87.2677H106.559V89.5418H105.892V83.6865ZM108.362 86.6795C109.238 86.6795 109.865 86.2221 109.865 85.4771C109.865 84.7452 109.316 84.3008 108.362 84.3008H106.559V86.6795H108.362Z" fill="black"/>
<path d="M111.486 87.3984C111.486 86.1307 112.362 85.1243 113.564 85.1243C114.845 85.1243 115.577 86.1437 115.577 87.4115C115.577 87.4899 115.577 87.5422 115.577 87.6206H112.14C112.231 88.5617 112.898 89.0845 113.669 89.0845C114.257 89.0845 114.688 88.8361 115.028 88.4702L115.433 88.8361C115.002 89.3197 114.466 89.6464 113.656 89.6464C112.467 89.6464 111.499 88.7316 111.499 87.3984H111.486ZM114.937 87.1501C114.871 86.3659 114.414 85.6732 113.551 85.6732C112.793 85.6732 112.231 86.3006 112.14 87.1501H114.924H114.937Z" fill="black"/>
<path d="M116.453 87.4115C116.453 86.1698 117.407 85.1373 118.674 85.1373C119.498 85.1373 120.008 85.4772 120.413 85.9085L119.981 86.3659C119.642 85.9999 119.249 85.7124 118.661 85.7124C117.786 85.7124 117.106 86.4574 117.106 87.3854C117.106 88.3395 117.799 89.0844 118.701 89.0844C119.249 89.0844 119.681 88.81 120.021 88.444L120.426 88.823C119.994 89.3066 119.472 89.6595 118.661 89.6595C117.394 89.6595 116.439 88.627 116.439 87.4115H116.453Z" fill="black"/>
<path d="M121.106 87.4115C121.106 86.1698 122.06 85.1373 123.367 85.1373C124.674 85.1373 125.615 86.1568 125.615 87.3854C125.615 88.627 124.648 89.6595 123.341 89.6595C122.034 89.6595 121.093 88.6401 121.093 87.4115H121.106ZM124.961 87.4115C124.961 86.4705 124.269 85.6993 123.354 85.6993C122.439 85.6993 121.772 86.4574 121.772 87.3723C121.772 88.3133 122.465 89.0714 123.367 89.0714C124.269 89.0714 124.961 88.3133 124.961 87.4115Z" fill="black"/>
<path d="M126.098 85.2288H126.804L128.255 88.823L129.719 85.2288H130.411L128.529 89.5941H127.954L126.072 85.2288H126.098Z" fill="black"/>
<path d="M130.921 87.3984C130.921 86.1307 131.797 85.1243 132.999 85.1243C134.28 85.1243 135.012 86.1437 135.012 87.4115C135.012 87.4899 135.012 87.5422 135.012 87.6206H131.574C131.666 88.5617 132.332 89.0845 133.104 89.0845C133.692 89.0845 134.123 88.8361 134.463 88.4702L134.868 88.8361C134.437 89.3197 133.901 89.6464 133.091 89.6464C131.901 89.6464 130.934 88.7316 130.934 87.3984H130.921ZM134.371 87.1501C134.306 86.3659 133.849 85.6732 132.986 85.6732C132.228 85.6732 131.666 86.3006 131.574 87.1501H134.358H134.371Z" fill="black"/>
<path d="M136.149 85.2288H136.789V86.3528C137.103 85.634 137.73 85.1112 138.554 85.1504V85.8431H138.502C137.56 85.8431 136.789 86.5227 136.789 87.8297V89.5549H136.149V85.2288Z" fill="black"/>
<path d="M142.775 85.2288H143.468L141.651 89.6987C141.285 90.6005 140.867 90.9272 140.214 90.9272C139.848 90.9272 139.586 90.8488 139.299 90.705L139.521 90.1953C139.73 90.2999 139.926 90.3522 140.201 90.3522C140.58 90.3522 140.828 90.1561 141.089 89.5418L139.116 85.2288H139.821L141.39 88.8361L142.775 85.2288Z" fill="black"/>
<path d="M59.7423 18.5462C59.7423 18.5462 59.7946 18.4678 59.7816 18.4155C59.1411 14.7428 58.5138 11.2532 57.8995 7.9465C57.7034 6.86169 57.6512 5.98601 57.7427 5.30638C58.1609 2.28723 60.6703 0 63.7809 0C71.2177 0 78.197 0 84.7189 0C87.8034 0 90.3259 2.24802 90.7833 5.2541C90.8879 5.95987 90.8095 7.0316 90.535 8.46929C89.8946 11.8805 89.3064 15.1741 88.7575 18.3632C88.7575 18.4416 88.7575 18.507 88.8229 18.5592C92.5739 22.3364 94.639 26.8978 95.018 32.2565C95.018 32.348 94.9788 32.3872 94.9004 32.348C84.5882 28.8714 73.4004 27.9957 62.6831 29.4203C59.6901 29.8255 56.6971 30.4267 53.691 31.2632C53.6387 31.2763 53.5864 31.237 53.5864 31.1717C54.1876 26.2182 56.2396 22.0097 59.7423 18.5462ZM66.0028 14.3377C71.8451 11.8805 78.9289 12.0504 84.4837 15.3441C84.5359 15.3702 84.6013 15.3441 84.6013 15.2918C85.0849 12.5863 85.6207 9.65865 86.1697 6.53495C86.3526 5.52856 85.7514 4.57446 84.6666 4.57446C78.38 4.57446 71.4922 4.57446 63.9901 4.57446C62.8268 4.57446 62.1733 5.39787 62.3955 6.6003C62.9053 9.48874 63.415 12.3772 63.9378 15.2787C63.9378 15.3441 64.0293 15.3833 64.0815 15.3441C64.6828 14.965 65.3232 14.6383 65.9898 14.3507L66.0028 14.3377Z" fill="black"/>
<path d="M37.733 40.19C36.8703 37.576 36.0077 34.962 35.1582 32.348C34.8706 31.4723 35.0406 30.7666 35.6418 30.2307C36.1254 29.8125 37.1056 29.5772 37.7591 29.3812C37.8244 29.355 37.9029 29.3812 37.929 29.4596C39.1053 31.8383 40.2816 34.2432 41.4709 36.6611C41.4709 36.6611 41.4709 36.6611 41.484 36.6611C41.484 36.6611 41.4971 36.6611 41.484 36.6349C40.6083 34.0079 39.7719 31.4462 38.9746 28.9499C38.4649 27.3684 38.8047 26.0222 39.981 24.8982C41.0266 23.9049 42.8171 23.6827 44.0719 24.3623C45.026 24.872 45.6664 25.604 45.9931 26.5842C46.9342 29.4334 47.8621 32.2304 48.7509 34.9881C48.7639 35.0535 48.8293 35.0796 48.8946 35.0535C51.4171 34.0732 54.0703 33.276 56.8673 32.6356C60.1086 31.9036 63.0624 31.4331 65.7287 31.2109C68.029 31.028 70.3031 30.8711 72.5904 30.8842C81.7001 30.9365 90.8621 32.5179 99.1745 36.3343C99.2529 36.3735 99.2921 36.3343 99.3183 36.269C100.377 33.0146 101.436 29.7863 102.494 26.5711C103.54 23.3951 107.775 23.0553 109.304 25.9307C109.8 26.8456 109.866 27.865 109.513 28.9629C108.689 31.5115 107.853 34.0602 107.016 36.6088V36.6349H107.043C108.154 34.3739 109.343 31.969 110.598 29.4073C110.624 29.3681 110.65 29.355 110.702 29.3681C111.813 29.6948 113.225 29.9432 113.447 31.2894C113.512 31.6553 113.408 32.2043 113.159 32.9754C112.31 35.524 111.486 38.0073 110.715 40.4121V40.4252C110.715 40.4252 110.741 40.4252 110.754 40.4121C111.617 38.6216 112.506 36.8179 113.395 35.0012C113.421 34.962 113.473 34.9359 113.512 34.962C113.943 35.1188 114.388 35.2757 114.871 35.4194C116.087 35.7854 116.793 36.7003 116.361 38.0073C115.342 41.0787 114.257 44.3985 113.12 47.9535C112.715 49.1951 111.892 49.9662 110.545 49.5349C109.709 49.2605 108.899 48.9991 108.114 48.7246C108.049 48.6985 107.997 48.7246 107.971 48.79C107.801 49.2997 107.631 49.8355 107.461 50.3845C107.226 51.1556 107.003 51.6523 106.794 51.8875C106.285 52.4495 105.605 52.5933 104.742 52.3057C104.063 52.0836 103.396 51.8875 102.769 51.7045C102.651 51.6653 102.599 51.5869 102.612 51.4562C102.769 50.3453 102.978 49.2474 103.226 48.1757C103.226 48.1757 103.226 48.1757 103.226 48.1626H103.174H103.148C102.769 49.3127 102.39 50.5021 102.024 51.6915C101.867 52.1881 101.658 52.5933 101.383 52.907C100.416 54.0179 98.7301 54.4754 97.4101 53.9656C95.4365 53.2206 94.4432 51.2209 95.1098 49.1559C96.1292 46.0322 97.1487 42.8954 98.1812 39.7587C98.2074 39.6802 98.1812 39.628 98.1159 39.6018C94.5478 37.955 91.0451 36.7395 87.6338 35.9815C78.2888 33.8903 68.9046 33.7465 59.4813 35.5763C56.2399 36.2036 53.077 37.1185 49.9925 38.3079C49.9141 38.334 49.901 38.3863 49.9141 38.4647C50.8943 41.51 51.8876 44.5684 52.9202 47.6137C53.443 49.1559 53.6782 50.1623 53.6259 50.6459C53.3384 53.7696 49.6004 55.4687 47.2217 53.0246C46.8949 52.6978 46.6205 52.162 46.3983 51.4301C46.0454 50.3191 45.7187 49.2474 45.418 48.2279C45.418 48.2018 45.3919 48.1887 45.3658 48.1887C45.3658 48.1887 45.3527 48.1887 45.3658 48.2018C45.5487 49.352 45.7317 50.4498 45.9278 51.5085C45.9278 51.5738 45.9016 51.6261 45.8494 51.6523C45.1697 51.8614 44.4509 52.0836 43.719 52.3057C42.1244 52.8155 41.4579 51.783 41.0788 50.4237C40.922 49.8748 40.7521 49.3127 40.543 48.7377C40.5299 48.6854 40.4907 48.6593 40.4384 48.6854C39.6281 48.9599 38.8047 49.2343 37.9682 49.5088C36.8311 49.8748 35.864 49.3389 35.5111 48.2541C34.4001 44.8428 33.263 41.3532 32.0868 37.7982C32.0083 37.5629 31.9822 37.3277 32.0083 37.0924C32.1913 35.5371 33.8251 35.3672 35.0013 34.9359C35.0536 34.9228 35.0928 34.9359 35.119 34.9751L37.6807 40.19C37.8375 40.5036 37.8506 40.4906 37.746 40.1638L37.733 40.19Z" fill="black"/>
<path d="M65.0487 52.0313C59.7162 49.3127 56.135 45.065 54.3052 39.2751C54.266 39.1574 54.3052 39.079 54.4229 39.0398C58.37 37.8243 62.4216 37.027 66.5517 36.6742C75.7268 35.89 85.124 36.8963 93.8417 40.0593C93.907 40.0854 93.9462 40.1507 93.9201 40.2292C92.6 43.9018 90.535 46.8948 87.738 49.2343C83.3465 52.8939 78.3016 54.5276 72.6292 54.1094C69.9238 53.9133 67.4013 53.2206 65.0618 52.0182L65.0487 52.0313Z" fill="black"/>
</g>
<defs>
<clipPath id="clip0_622_273">
<rect width="143.769" height="90.9142" fill="white"/>
</clipPath>
</defs>
</svg>
