<svg width="143" height="100" viewBox="0 0 143 100" fill="none" xmlns="http://www.w3.org/2000/svg">
<g clip-path="url(#clip0_622_219)">
<path fill-rule="evenodd" clip-rule="evenodd" d="M138.896 88.8199V81.9145C138.896 81.2203 138.809 80.5139 138.573 79.8563C138.375 79.3326 138.102 78.8333 137.718 78.4192C137.383 78.066 136.986 77.7737 136.54 77.5789C136.106 77.3962 135.659 77.2987 135.188 77.2987C134.717 77.2987 134.258 77.3962 133.824 77.5789C133.378 77.7737 132.981 78.0538 132.658 78.4192C132.274 78.8333 132.001 79.3448 131.815 79.8563C131.567 80.5139 131.493 81.2203 131.493 81.9145V88.8077H132.472V89.6724H127.475V88.8077H128.442V69.1511H127.475V68.2621H131.505V78.0173C131.58 77.8955 131.666 77.7615 131.741 77.6519C132.088 77.1526 132.51 76.7142 133.006 76.3488C133.477 76.0078 133.998 75.7399 134.556 75.5694C135.101 75.3989 135.659 75.3136 136.23 75.3136C136.961 75.3136 137.681 75.4597 138.363 75.7277C139.082 76.0078 139.702 76.434 140.235 76.9821C140.818 77.5789 141.252 78.2974 141.562 79.0647C141.921 79.9659 142.058 80.9524 142.058 81.9267V88.8199H143.037V89.6846H138.04V88.8199H138.933H138.896ZM120.767 76.3244H119.799V75.4597H120.903L123.073 71.4407H123.817V75.4597H125.64V76.3244H123.817V83.3029C123.817 84.0702 123.879 84.8374 124.003 85.5925C124.115 86.2258 124.276 86.8591 124.549 87.4315C124.759 87.8821 125.045 88.2962 125.429 88.6128C125.764 88.8808 126.136 89.0147 126.57 89.0147H126.892V89.8307H126.57C125.739 89.8307 124.933 89.6724 124.189 89.3192C123.482 88.9782 122.862 88.5154 122.354 87.9308C121.821 87.3219 121.449 86.6155 121.176 85.8482C120.891 85.0201 120.767 84.1676 120.767 83.2907V76.3123V76.3244ZM115.149 83.0958C115.149 82.6939 115.075 82.3164 114.901 81.951C114.74 81.61 114.504 81.3177 114.219 81.0742C113.922 80.8306 113.587 80.6357 113.215 80.5018C112.843 80.3678 112.446 80.2947 112.049 80.2947C111.541 80.2947 111.045 80.4043 110.611 80.6601C110.189 80.9158 109.842 81.2447 109.557 81.6466C109.259 82.0728 109.048 82.56 108.912 83.0593C108.763 83.5952 108.689 84.1432 108.689 84.7034C108.689 85.2393 108.763 85.7752 108.899 86.2989C109.023 86.7738 109.222 87.2366 109.495 87.6507C109.743 88.0283 110.065 88.3327 110.45 88.5763C110.846 88.8199 111.293 88.9173 111.752 88.9173C112.21 88.9173 112.694 88.8077 113.116 88.5763C113.537 88.3327 113.897 88.0161 114.207 87.6385C114.529 87.2366 114.765 86.786 114.926 86.2989C115.1 85.7874 115.174 85.2759 115.174 84.74V83.108L115.149 83.0958ZM115.149 89.1C114.728 89.2949 114.294 89.441 113.847 89.5506C113.227 89.6967 112.595 89.7698 111.962 89.7698C111.156 89.7698 110.338 89.6724 109.569 89.4045C108.912 89.1731 108.292 88.8442 107.759 88.3936C107.263 87.9674 106.853 87.4802 106.543 86.9078C106.419 86.6886 106.32 86.4694 106.233 86.238C105.861 87.127 105.266 87.8821 104.46 88.5032C103.208 89.4653 101.633 89.782 100.07 89.782C99.0536 89.782 98.0492 89.5993 97.144 89.1487C96.3256 88.7346 95.6188 88.1866 95.0484 87.4802C94.4779 86.786 94.0563 85.9944 93.7835 85.1297C93.5107 84.265 93.3743 83.376 93.3743 82.4747C93.3743 81.5857 93.5107 80.721 93.7835 79.8806C94.0563 79.0403 94.4779 78.273 95.0484 77.591C95.6312 76.8847 96.3752 76.3488 97.206 75.9591C98.1608 75.5206 99.2024 75.3501 100.256 75.3501C101 75.3501 101.769 75.4354 102.476 75.6546C103.071 75.8373 103.642 76.1052 104.125 76.4828C104.547 76.8116 104.919 77.2135 105.167 77.6885C105.403 78.1269 105.539 78.6019 105.539 79.1134C105.539 79.6249 105.39 80.112 105.142 80.5627C104.857 81.0742 104.435 81.4761 103.952 81.8049C103.369 82.1946 102.675 82.4625 101.993 82.6452C101.112 82.8766 100.157 82.9619 99.2396 82.9619H98.9172V82.0972H99.2396C99.6861 82.0972 100.12 82.0119 100.517 81.8049C100.889 81.61 101.199 81.3543 101.472 81.0376C101.732 80.721 101.931 80.3678 102.067 79.9781C102.203 79.5884 102.265 79.1865 102.265 78.7846C102.265 78.4557 102.216 78.1391 102.117 77.8224C102.017 77.5301 101.881 77.2744 101.683 77.0308C101.484 76.7994 101.236 76.6167 100.951 76.4828C100.616 76.3244 100.244 76.2757 99.8845 76.2757C99.3389 76.2757 98.8304 76.3975 98.3592 76.6776C97.888 76.9577 97.516 77.3353 97.206 77.7859C96.8712 78.273 96.6356 78.8211 96.4868 79.3935C96.3256 80.0268 96.2388 80.6601 96.2388 81.3177C96.2388 82.0728 96.3504 82.8157 96.5736 83.5465C96.7844 84.265 97.1192 84.9348 97.578 85.5316C98.0244 86.1284 98.5824 86.5912 99.2521 86.9322C99.9837 87.3219 100.814 87.4558 101.633 87.4558C102.203 87.4558 102.749 87.3584 103.27 87.1392C103.753 86.9322 104.212 86.6642 104.597 86.311C104.969 85.97 105.266 85.5803 105.489 85.1297C105.7 84.7156 105.812 84.265 105.812 83.8022C105.824 83.1446 105.948 82.4991 106.159 81.8658C106.37 81.2569 106.692 80.6966 107.126 80.1973C107.573 79.698 108.118 79.3082 108.726 79.0281C109.408 78.7115 110.152 78.5775 110.908 78.5775C112 78.5775 113.016 78.8454 113.922 79.4179C114.393 79.7101 114.79 80.0755 115.1 80.4896C115.062 80.0268 114.976 79.5518 114.802 79.1256C114.616 78.6749 114.368 78.2365 114.021 77.8833C113.723 77.5789 113.376 77.3475 112.979 77.1891C112.595 77.0552 112.21 76.9699 111.801 76.9699C111.268 76.9699 110.784 77.0917 110.325 77.3596C109.916 77.6032 109.643 77.9442 109.532 78.407L109.457 78.6993L108.527 78.5288L108.627 78.1878C108.887 77.2744 109.42 76.568 110.239 76.0809C111.045 75.5937 111.938 75.3623 112.88 75.3623C113.537 75.3623 114.17 75.4841 114.777 75.6911C115.422 75.9104 115.992 76.2635 116.488 76.7142C117.022 77.2013 117.418 77.7981 117.716 78.4557C118.063 79.2352 118.187 80.112 118.187 80.9646V88.7955H119.13V89.6602H115.1V89.0878L115.149 89.1ZM87.2238 78.2365C87.3354 78.066 87.447 77.8955 87.5834 77.725C87.9926 77.2013 88.4762 76.7385 89.0466 76.3732C89.5922 76.0078 90.1874 75.7399 90.8323 75.5694C91.4523 75.3989 92.0971 75.3014 92.7543 75.3014H93.0767V78.5288L92.6675 78.4192C92.0599 78.2609 91.4275 78.1513 90.8075 78.1513C90.3239 78.1513 89.8402 78.2121 89.369 78.3583C88.9474 78.4923 88.5754 78.6993 88.253 79.0038C87.9182 79.3204 87.6826 79.7223 87.509 80.1486C87.2982 80.6966 87.2362 81.3177 87.2362 81.9023V88.7955H88.2034V89.6602H83.2061V88.7955H84.1733V76.3001H83.2061V75.4354H87.2362V78.2122L87.2238 78.2365ZM74.8359 88.8929C75.4063 88.8929 75.9023 88.7346 76.3487 88.3814C76.8447 87.9917 77.2292 87.5046 77.5268 86.9565C77.8864 86.311 78.122 85.6169 78.2832 84.9105C78.4568 84.131 78.5436 83.3516 78.5436 82.56C78.5436 81.8293 78.4692 81.0985 78.2956 80.38C78.1468 79.7345 77.9112 79.1134 77.5516 78.541C77.2416 78.0295 76.8323 77.6154 76.3239 77.2866C75.7907 76.9456 75.1955 76.8238 74.5631 76.8238C74.0795 76.8238 73.6083 76.8968 73.1619 77.0795C72.7527 77.2379 72.3682 77.4692 72.0458 77.7737C71.7358 78.0782 71.4878 78.4314 71.3142 78.8211C71.1282 79.2352 71.0414 79.6858 71.0414 80.1364V82.5722C71.0414 83.3638 71.1282 84.1554 71.3018 84.9227C71.463 85.6412 71.711 86.3354 72.0582 86.9687C72.3559 87.5046 72.7527 88.0039 73.2487 88.3693C73.7075 88.7103 74.2283 88.8686 74.8111 88.8686L74.8359 88.8929ZM70.905 88.5398C70.7934 88.7955 70.6198 89.0147 70.3966 89.1974C70.037 89.5141 69.603 89.6724 69.1194 89.6724L67.0361 89.648V88.7833H67.3585C67.8421 88.7833 68.0034 88.5885 68.0034 88.1257V69.1511H67.0361V68.2621H71.0662V77.3231C71.0662 77.3231 71.1158 77.2622 71.1282 77.2257C71.4134 76.8359 71.7606 76.4828 72.1574 76.1905C72.5419 75.8982 72.9635 75.679 73.4223 75.5206C73.8811 75.3501 74.3647 75.2771 74.8607 75.2771C75.9147 75.2771 76.9564 75.4476 77.9112 75.9104C78.7544 76.3244 79.486 76.8725 80.0936 77.5789C80.6764 78.273 81.1228 79.0525 81.4081 79.905C81.7057 80.7697 81.8421 81.6588 81.8421 82.56C81.8421 83.449 81.6933 84.3381 81.4205 85.1906C81.1353 86.0431 80.7136 86.8226 80.1184 87.5167C79.5232 88.2109 78.7792 88.759 77.9484 89.1609C77.006 89.6115 75.9767 89.782 74.9351 89.782C74.1167 89.782 73.3107 89.6602 72.5419 89.4045C71.9466 89.1974 71.401 88.9173 70.905 88.5519V88.5398Z" fill="black"/>
<path fill-rule="evenodd" clip-rule="evenodd" d="M57.9832 79.9172C57.698 79.0647 57.264 78.2853 56.6688 77.6033C56.0612 76.8969 55.3172 76.361 54.474 75.9591C53.5192 75.5085 52.4651 75.338 51.4111 75.338C50.6175 75.338 49.8487 75.4598 49.1047 75.7156C48.5838 75.8982 48.0878 76.1418 47.6414 76.4585V75.5085H43.6113V76.3732H44.591V96.0298H43.6113V96.9188H48.6086V96.0298H47.629V87.7847C47.629 87.7847 47.6786 87.8456 47.691 87.8822C47.9762 88.2841 48.3234 88.6372 48.7202 88.9295C49.1047 89.2218 49.5263 89.441 49.9851 89.5994C50.4439 89.7699 50.9399 89.8429 51.4235 89.8429C52.4775 89.8429 53.5192 89.6724 54.474 89.2096C55.3172 88.8077 56.0488 88.2475 56.6564 87.5412C57.2392 86.847 57.6732 86.0675 57.9709 85.215C58.2685 84.3503 58.4049 83.4734 58.4049 82.56C58.4049 81.6466 58.2561 80.7698 57.9709 79.9051L57.9832 79.9172ZM54.846 84.667C54.6848 85.3246 54.4368 85.9701 54.0648 86.5425C53.73 87.0662 53.2959 87.4924 52.7751 87.8334C52.2295 88.1745 51.5971 88.3084 50.9523 88.3084C50.5183 88.3084 50.0843 88.2232 49.6875 88.0527C49.2907 87.8822 48.9435 87.6508 48.6334 87.3585C48.3234 87.054 48.0878 86.6886 47.9142 86.2867C47.7282 85.8605 47.6414 85.4099 47.6414 84.9471V82.5113C47.6414 81.7075 47.7282 80.9159 47.9018 80.1365C48.063 79.4301 48.311 78.7481 48.6582 78.1148C48.9683 77.5789 49.3527 77.0918 49.8487 76.7142C50.3075 76.3732 50.8283 76.2149 51.4111 76.2149C51.9939 76.2149 52.4651 76.3732 52.8991 76.7142C53.3951 77.0918 53.7796 77.5789 54.0772 78.1148C54.4368 78.7481 54.6724 79.4423 54.8336 80.1365C55.0072 80.9037 55.094 81.671 55.094 82.4504C55.094 83.2299 55.0072 83.9362 54.8336 84.6548L54.846 84.667Z" fill="black"/>
<path fill-rule="evenodd" clip-rule="evenodd" d="M42.3718 86.3963C41.7641 87.4071 40.9581 88.2231 39.9413 88.8442C38.8749 89.4897 37.6968 89.7698 36.4568 89.7698C35.4648 89.7698 34.4852 89.5871 33.6048 89.1487C32.7987 88.7468 32.1043 88.1866 31.5587 87.4924C31.0007 86.7982 30.5915 86.0066 30.3311 85.1662C30.0583 84.3015 29.9219 83.4247 29.9219 82.5234C29.9219 81.6344 30.0583 80.7575 30.3311 79.905C30.6039 79.0525 31.0255 78.273 31.6083 77.5789C32.2035 76.8847 32.9351 76.3366 33.766 75.9347C34.7208 75.4719 35.7748 75.3136 36.8288 75.3136C37.5728 75.3136 38.3417 75.3988 39.0609 75.6302C39.6561 75.8251 40.2265 76.093 40.7101 76.4706C41.1317 76.7994 41.5037 77.2013 41.7517 77.6763C41.9873 78.1147 42.1238 78.5897 42.1238 79.1012C42.1238 79.6127 41.9749 80.0999 41.7269 80.5505C41.4417 81.062 41.0201 81.4639 40.5365 81.7927C39.9537 82.1824 39.2593 82.4504 38.5773 82.633C37.6969 82.8644 36.742 82.9497 35.8244 82.9497H35.502V82.085H35.8244C36.2708 82.085 36.7048 82.0119 37.1016 81.7927C37.4736 81.5979 37.7837 81.3421 38.0565 81.0254C38.3169 80.7088 38.5153 80.3556 38.6517 79.9659C38.7881 79.5762 38.8501 79.1743 38.8501 78.7724C38.8501 78.4435 38.8005 78.1269 38.7013 77.8102C38.6021 77.518 38.4657 77.2622 38.2673 77.0186C38.0689 76.7872 37.8085 76.6046 37.5356 76.4706C37.2008 76.3123 36.8288 76.2635 36.4692 76.2635C35.9236 76.2635 35.3904 76.3853 34.9192 76.6654C34.448 76.9456 34.076 77.3231 33.7784 77.7737C33.4436 78.273 33.2204 78.8333 33.0715 79.4057C32.9103 80.039 32.8235 80.6723 32.8235 81.3299C32.8235 82.085 32.9351 82.8279 33.1459 83.5586C33.3568 84.265 33.6668 84.9348 34.1256 85.5316C34.572 86.1162 35.1176 86.579 35.7748 86.92C36.5064 87.3097 37.3248 87.4437 38.1433 87.4437C38.8625 87.4437 39.5817 87.3219 40.2389 87.0418C40.7969 86.7982 41.2681 86.445 41.5781 85.9213L41.7393 85.6412L42.5578 86.1162L42.3966 86.3841L42.3718 86.3963Z" fill="black"/>
<path fill-rule="evenodd" clip-rule="evenodd" d="M28.5951 86.3963C27.9875 87.4071 27.1815 88.2231 26.1646 88.8442C25.0982 89.4897 23.9202 89.7698 22.6802 89.7698C21.6881 89.7698 20.7209 89.5871 19.8281 89.1487C19.0221 88.7468 18.3277 88.1866 17.7696 87.4924C17.2116 86.7982 16.8024 86.0066 16.542 85.1662C16.2692 84.3015 16.1328 83.4247 16.1328 82.5234C16.1328 81.6344 16.2692 80.7575 16.542 79.905C16.8148 79.0525 17.2364 78.273 17.8192 77.5789C18.4145 76.8847 19.1461 76.3366 19.9769 75.9347C20.9317 75.4719 21.9857 75.3136 23.0398 75.3136C23.7838 75.3136 24.5526 75.3988 25.2718 75.6302C25.867 75.8251 26.4374 76.093 26.9211 76.4706C27.3427 76.7994 27.7147 77.2013 27.9627 77.6763C28.1983 78.1147 28.3347 78.5897 28.3347 79.1012C28.3347 79.6127 28.1859 80.0999 27.9379 80.5505C27.6527 81.062 27.2311 81.4639 26.7474 81.7927C26.1646 82.1824 25.4702 82.4504 24.7882 82.633C23.9078 82.8766 22.953 82.9497 22.0353 82.9497H21.7129V82.085H22.0353C22.4818 82.085 22.9158 82.0119 23.3126 81.7927C23.6846 81.5979 23.9946 81.3421 24.2674 81.0254C24.5278 80.7088 24.7262 80.3556 24.8626 79.9659C24.999 79.5762 25.061 79.1743 25.061 78.7724C25.061 78.4435 25.0114 78.1269 24.9122 77.8102C24.813 77.518 24.6766 77.2622 24.4782 77.0186C24.2798 76.7872 24.0194 76.6046 23.7466 76.4706C23.4118 76.3123 23.0398 76.2635 22.6802 76.2635C22.1345 76.2635 21.6013 76.3853 21.1301 76.6654C20.6589 76.9456 20.2869 77.3231 19.9893 77.7737C19.6545 78.273 19.4313 78.8333 19.2701 79.4057C19.1089 80.039 19.0221 80.6723 19.0221 81.3299C19.0221 82.085 19.1337 82.8279 19.3445 83.5586C19.5553 84.265 19.8653 84.9348 20.3117 85.5316C20.7581 86.1162 21.3037 86.579 21.9609 86.92C22.6926 87.3097 23.511 87.4437 24.3294 87.4437C25.0486 87.4437 25.7678 87.3219 26.425 87.0418C26.9831 86.7982 27.4543 86.445 27.7643 85.9213L27.9255 85.6412L28.7439 86.1162L28.5827 86.3841L28.5951 86.3963Z" fill="black"/>
<path fill-rule="evenodd" clip-rule="evenodd" d="M13.839 88.8199V68.2743H9.80891V69.1633H10.7885V76.4219C10.3297 76.1052 9.82131 75.8617 9.2881 75.679C8.49448 75.4111 7.67607 75.3015 6.84525 75.3015C5.81603 75.3015 4.7992 75.472 3.86918 75.9226C3.03836 76.3245 2.31915 76.8725 1.72393 77.5667C1.14112 78.2487 0.719511 79.0403 0.434305 79.8807C0.149098 80.7332 0.0126953 81.6101 0.0126953 82.5113C0.0126953 83.4125 0.161499 84.3016 0.446705 85.1663C0.731911 86.0188 1.17832 86.7982 1.76113 87.4924C2.36875 88.1988 3.11276 88.7468 3.95598 89.1609C4.91081 89.6115 5.94003 89.7942 6.99405 89.7942C7.49006 89.7942 7.97367 89.709 8.43248 89.5506C8.89129 89.3923 9.3129 89.1609 9.69731 88.8808C10.0941 88.5885 10.4289 88.2353 10.7265 87.8456C10.7513 87.8212 10.7761 87.7847 10.7885 87.7482V89.6968H14.8186V88.8321H13.8514L13.839 88.8199ZM10.7761 84.9105C10.7761 85.3611 10.6893 85.8117 10.5033 86.2258C10.3297 86.6277 10.0817 86.9809 9.77171 87.2854C9.44931 87.5898 9.0773 87.8212 8.66809 87.9796C8.22168 88.1622 7.75047 88.2353 7.26686 88.2353C6.64684 88.2353 6.05163 88.1014 5.51842 87.7725C5.01001 87.4437 4.5884 87.0296 4.27839 86.5181C3.93118 85.9457 3.68318 85.3246 3.53437 84.6791C3.36077 83.9606 3.28637 83.2298 3.28637 82.4991C3.28637 81.7075 3.37317 80.9159 3.54677 80.1364C3.70798 79.4179 3.95598 78.7237 4.30319 78.0782C4.6132 77.5302 4.99761 77.043 5.49362 76.6533C5.94003 76.3123 6.43604 76.1418 6.99405 76.1418C7.57686 76.1418 8.09768 76.3001 8.55649 76.6411C9.0525 77.0187 9.44931 77.5058 9.74691 78.0539C10.1065 78.6993 10.3421 79.3813 10.5033 80.0999C10.6769 80.8793 10.7637 81.671 10.7637 82.4748V84.9105H10.7761Z" fill="black"/>
<path d="M96.1638 97.9418L96.5606 97.4912C97.1434 98.0027 97.7014 98.2707 98.4702 98.2707C99.239 98.2707 99.7103 97.8809 99.7103 97.3329C99.7103 96.8092 99.425 96.5169 98.2594 96.2733C96.9698 95.9932 96.387 95.5913 96.387 94.6901C96.387 93.8132 97.1558 93.1799 98.2222 93.1799C99.0406 93.1799 99.6234 93.4113 100.181 93.8498L99.8094 94.3247C99.2886 93.9107 98.7678 93.728 98.1974 93.728C97.4658 93.728 97.007 94.1177 97.007 94.617C97.007 95.1529 97.2922 95.4452 98.5198 95.7009C99.7598 95.9689 100.343 96.4195 100.343 97.2476C100.343 98.2098 99.549 98.8187 98.433 98.8187C97.5526 98.8187 96.821 98.5264 96.1514 97.9418H96.1638Z" fill="black"/>
<path d="M101.223 97.5642C101.223 96.6995 101.943 96.2367 102.984 96.2367C103.505 96.2367 103.889 96.3098 104.249 96.4072V96.2611C104.249 95.5303 103.79 95.1528 103.021 95.1528C102.538 95.1528 102.153 95.2746 101.769 95.4451L101.583 94.9457C102.042 94.7387 102.488 94.6047 103.083 94.6047C103.679 94.6047 104.113 94.7509 104.41 95.0554C104.695 95.3355 104.832 95.7252 104.832 96.2367V98.709H104.237V98.1001C103.951 98.4654 103.468 98.7942 102.749 98.7942C101.98 98.7942 101.211 98.368 101.211 97.5276L101.223 97.5642ZM104.261 97.2597V96.87C103.964 96.7847 103.555 96.6995 103.046 96.6995C102.277 96.6995 101.843 97.0283 101.843 97.5398C101.843 98.0635 102.327 98.368 102.885 98.368C103.641 98.368 104.261 97.9174 104.261 97.2719V97.2597Z" fill="black"/>
<path d="M106.208 93.0215H106.828V98.7455H106.208V93.0215Z" fill="black"/>
<path d="M107.994 96.736C107.994 95.579 108.899 94.6047 110.152 94.6047C111.404 94.6047 112.297 95.5669 112.297 96.6995C112.297 97.8565 111.379 98.8308 110.139 98.8308C108.899 98.8308 107.994 97.8687 107.994 96.736ZM111.665 96.736C111.665 95.847 111.007 95.1406 110.127 95.1406C109.247 95.1406 108.614 95.8592 108.614 96.7117C108.614 97.6007 109.271 98.3071 110.139 98.3071C111.007 98.3071 111.652 97.6007 111.652 96.7482L111.665 96.736Z" fill="black"/>
<path d="M113.413 94.69H114.033V95.3964C114.306 94.9579 114.74 94.6047 115.446 94.6047C116.438 94.6047 117.021 95.2624 117.021 96.2245V98.7455H116.401V96.3828C116.401 95.6278 115.992 95.165 115.26 95.165C114.529 95.165 114.02 95.6765 114.02 96.4316V98.7577H113.4V94.7022L113.413 94.69Z" fill="black"/>
<path d="M123.978 97.9662C123.47 98.502 122.875 98.8187 122.155 98.8187C121.151 98.8187 120.395 98.1976 120.395 97.2842C120.395 96.5412 120.891 96.0176 121.746 95.6887C121.362 95.2503 121.188 94.9093 121.188 94.483C121.188 93.7523 121.783 93.1677 122.664 93.1677C123.445 93.1677 124.015 93.7279 124.015 94.41C124.015 95.1285 123.507 95.5669 122.701 95.8471L123.978 97.1258C124.226 96.7726 124.449 96.3586 124.648 95.908L125.169 96.1394C124.921 96.6509 124.66 97.1258 124.363 97.5156L125.342 98.4899L124.859 98.8552L123.978 97.9662ZM123.594 97.5886L122.106 96.0785C121.362 96.3464 121.039 96.797 121.039 97.2598C121.039 97.8687 121.523 98.3072 122.205 98.3072C122.726 98.3072 123.197 98.0271 123.606 97.5886H123.594ZM123.42 94.4465C123.42 93.9959 123.085 93.6671 122.627 93.6671C122.118 93.6671 121.783 94.0081 121.783 94.4587C121.783 94.7997 121.92 95.0433 122.341 95.4817C123.048 95.2503 123.42 94.9093 123.42 94.4343V94.4465Z" fill="black"/>
<path d="M128.392 97.9418L128.789 97.4912C129.372 98.0027 129.93 98.2707 130.699 98.2707C131.468 98.2707 131.939 97.8809 131.939 97.3329C131.939 96.8092 131.654 96.5169 130.488 96.2733C129.198 95.9932 128.615 95.5913 128.615 94.6901C128.615 93.8132 129.384 93.1799 130.451 93.1799C131.269 93.1799 131.852 93.4113 132.41 93.8498L132.038 94.3247C131.517 93.9107 130.996 93.728 130.426 93.728C129.694 93.728 129.236 94.1177 129.236 94.617C129.236 95.1529 129.521 95.4452 130.748 95.7009C131.988 95.9689 132.571 96.4195 132.571 97.2476C132.571 98.2098 131.778 98.8187 130.662 98.8187C129.781 98.8187 129.049 98.5264 128.38 97.9418H128.392Z" fill="black"/>
<path d="M133.762 94.69H134.382V95.506C134.717 95.0188 135.2 94.6047 135.957 94.6047C136.949 94.6047 137.928 95.372 137.928 96.6995C137.928 98.0392 136.949 98.8186 135.957 98.8186C135.188 98.8186 134.692 98.4167 134.382 97.9539V99.9878H133.762V94.6778V94.69ZM137.308 96.736C137.308 95.7617 136.639 95.1528 135.857 95.1528C135.076 95.1528 134.369 95.7861 134.369 96.7117C134.369 97.6738 135.101 98.2949 135.857 98.2949C136.614 98.2949 137.308 97.7103 137.308 96.736Z" fill="black"/>
<path d="M138.747 97.5642C138.747 96.6995 139.466 96.2367 140.508 96.2367C141.028 96.2367 141.413 96.3098 141.772 96.4072V96.2611C141.772 95.5303 141.314 95.1528 140.545 95.1528C140.061 95.1528 139.677 95.2746 139.292 95.4451L139.106 94.9457C139.565 94.7387 140.012 94.6047 140.607 94.6047C141.202 94.6047 141.636 94.7509 141.934 95.0554C142.219 95.3355 142.355 95.7252 142.355 96.2367V98.709H141.76V98.1001C141.475 98.4654 140.991 98.7942 140.272 98.7942C139.503 98.7942 138.734 98.368 138.734 97.5276L138.747 97.5642ZM141.797 97.2597V96.87C141.5 96.7847 141.09 96.6995 140.582 96.6995C139.813 96.6995 139.379 97.0283 139.379 97.5398C139.379 98.0635 139.863 98.368 140.421 98.368C141.177 98.368 141.797 97.9174 141.797 97.2719V97.2597Z" fill="black"/>
<path fill-rule="evenodd" clip-rule="evenodd" d="M64.4196 58.7748C62.3984 58.7748 60.7368 57.2768 60.526 55.3525H58.0459C58.2691 58.6165 61.0468 61.0035 64.432 61.0035C67.8173 61.0035 70.5826 58.6165 70.8182 55.3525H68.3381C68.1149 57.2768 66.4533 58.7748 64.4444 58.7748" fill="black"/>
<path fill-rule="evenodd" clip-rule="evenodd" d="M70.8175 36.7921V54.1956H68.325C68.1018 52.2714 66.4402 50.7734 64.4314 50.7734C62.4225 50.7734 60.7485 52.2714 60.5377 54.1956H58.0576C58.2808 50.9317 61.0585 48.3498 64.4438 48.3498C65.9194 48.3498 67.2834 48.8369 68.3622 49.6651V34.7461L70.8423 36.7921H70.8175Z" fill="black"/>
<path fill-rule="evenodd" clip-rule="evenodd" d="M78.5802 58.7748C80.6014 58.7748 82.2631 57.2768 82.4739 55.3525H84.9539C84.7307 58.6165 81.9531 61.0035 78.5678 61.0035C75.1825 61.0035 72.4172 58.6165 72.1816 55.3525H74.6617C74.8849 57.2768 76.5465 58.7748 78.5554 58.7748" fill="black"/>
<path fill-rule="evenodd" clip-rule="evenodd" d="M84.9542 54.1956H82.4742C82.251 52.2714 80.6017 50.7734 78.5805 50.7734C76.5592 50.7734 74.8976 52.2714 74.6868 54.1956H72.1943V37.9126L74.6744 39.9586V49.6651C75.7532 48.837 77.1172 48.3498 78.5929 48.3498C81.9782 48.3498 84.7434 50.9317 84.979 54.1956" fill="black"/>
<path fill-rule="evenodd" clip-rule="evenodd" d="M74.6375 38.3023L68.3506 33.0167L70.9422 0.194868C70.967 -0.0608868 71.3515 -0.0608868 71.3639 0.194868L74.6375 38.3023Z" fill="black"/>
</g>
<defs>
<clipPath id="clip0_622_219">
<rect width="143" height="100" fill="white"/>
</clipPath>
</defs>
</svg>
