<svg width="150" height="85" viewBox="0 0 150 85" fill="none" xmlns="http://www.w3.org/2000/svg">
<path d="M51.4829 60.0257C49.1747 59.4004 47.2815 59.8564 45.6736 61.6149V60.0778H41.6797V61.0027L42.7689 61.0678C42.9245 61.172 42.8986 61.3674 42.9245 61.5368C43.2098 63.9336 42.9245 67.6462 42.9245 70.1994C42.9245 72.7395 42.8338 75.3448 42.756 77.911C42.7171 79.2267 42.7949 81.9101 42.756 83.2258H41.8353V84.307H46.9055V83.2258C46.5294 83.2258 46.0756 83.343 45.8292 82.9913V73.2085C47.3853 74.4981 49.6156 74.7456 51.5218 74.2115C57.6682 72.505 57.8239 61.7322 51.4959 60.0387L51.4829 60.0257ZM51.846 71.7625C50.4844 73.951 47.4501 73.8728 46.3608 71.502C45.7773 70.2515 45.9848 69.8476 45.9848 68.6492C45.9848 66.4477 45.5309 61.5628 48.5523 61.0418C53.4928 60.1951 53.5965 68.9618 51.846 71.7625Z" fill="black"/>
<path d="M13.23 72.8046V53.0044H9.08053V53.9293H10.3124V61.0026C8.3414 59.2831 5.07366 59.3613 2.97297 60.8072C-0.16509 62.9957 -0.81345 67.9457 1.00196 71.1893C2.97297 74.6934 7.91348 75.7746 10.4551 72.2705V74.1202H14.4489C14.7731 72.7004 13.3467 73.5862 13.2171 72.8046H13.23ZM10.0531 70.6943C9.79372 71.541 9.23613 72.3877 8.4192 72.7525C2.35055 75.501 2.06527 61.7582 6.27961 60.8724C8.54887 60.3904 10.0531 62.2401 10.2994 64.3244C10.455 65.7182 10.455 69.4047 10.0531 70.6813V70.6943Z" fill="black"/>
<path d="M139.998 62.3835L141.23 61.0678C143.953 58.6449 148.919 60.2471 148.919 64.155V73.3387H149.996V74.1072H144.925V73.3387L145.859 73.2736C146.015 73.1693 145.989 72.9739 146.015 72.8046C146.222 71.1372 146.183 65.119 145.82 63.5689C145.211 61.0417 142.371 60.8724 140.854 62.6831C140.685 62.8785 140.011 63.9987 140.011 64.155V73.3387H140.932V74.1072H135.861L136.004 73.4038L136.938 73.3387V53.5125H135.861V52.7439C137.249 52.7439 137.845 52.7439 140.011 52.8221V62.3835H139.998Z" fill="black"/>
<path d="M76.7174 73.3518H77.6381L77.7937 74.1204H72.7235V73.3518H73.6442V64.0118C73.6442 63.5429 73.2033 62.6831 72.8791 62.3054C71.0378 60.2211 67.8738 62.4356 67.6404 64.7674C67.394 67.3466 67.8479 70.3297 67.6404 72.961C67.6274 73.5732 68.6259 73.2606 68.7167 73.3518V74.1204H63.6465L63.7891 73.4169L64.7228 73.3518V61.2372C64.4764 60.8855 64.0225 61.0158 63.6465 61.0027V60.2342H67.6404V62.3966C68.2369 62.0188 68.6259 61.3675 69.1964 60.9376C71.6861 59.0618 75.5893 59.8694 76.3932 63.1C76.497 63.5038 76.7045 64.598 76.7045 64.9367V73.3518H76.7174Z" fill="black"/>
<path d="M97.3099 60.2212V70.6423C97.3099 70.9159 97.9064 72.1925 98.1528 72.427C99.0735 73.2867 100.72 73.1043 101.693 72.427C102.03 72.1925 103.301 70.6684 103.301 70.3427V61.0028H102.225V60.2342H106.218V71.8017C106.076 73.443 108.488 73.1564 108.851 73.1695V74.1334H103.288V72.1273L102.367 73.1304C99.3069 75.6054 94.7684 74.7196 94.3793 70.3427C94.2756 69.1313 94.5998 61.2763 94.1978 61.0288L93.1475 61.0028V60.2342H97.297L97.3099 60.2212Z" fill="black"/>
<path d="M85.5996 59.8043C76.1984 60.0127 76.3281 75.1755 86.3258 74.433C95.0527 73.7947 94.9101 59.5959 85.5996 59.8043ZM88.5821 72.0621C87.1946 74.5762 84.3418 73.7816 83.0451 71.5411C81.6576 69.1442 81.2686 61.4196 84.666 60.7291C89.7362 59.687 90.2549 69.053 88.5821 72.0752V72.0621Z" fill="black"/>
<path d="M33.213 67.3336V66.565C35.7675 66.6953 37.946 65.1321 37.4792 62.3575C37.0902 60.0648 34.4319 60.0779 33.1482 61.641C31.1901 64.0249 31.3068 69.4309 34.0818 71.1634C36.0528 72.4009 39.1131 72.2836 40.3709 70.0952L41.3564 70.6423C39.93 73.2346 37.7385 74.7196 34.6913 74.4069C26.2496 73.5342 26.7553 58.4235 36.9346 59.8043C40.5135 60.2863 42.1344 64.5459 38.75 66.4869C38.348 66.7083 36.5845 67.3336 36.2084 67.3336H33.213Z" fill="black"/>
<path d="M19.8438 67.3336V66.565C22.4761 66.8125 24.7972 64.7804 23.9544 62.0579C23.2801 59.8824 20.8033 60.1951 19.6104 61.7843C18.0413 63.8555 18.0154 68.3236 19.7011 70.3557C21.2053 72.1664 24.3953 72.5311 26.2236 71.0591C26.859 70.5381 27.0665 69.3917 27.8186 70.7986C24.9918 76.426 17.0558 75.3839 15.6165 69.2094C14.3716 63.8946 17.7172 59.0618 23.4227 59.8303C27.3129 60.3644 28.6355 65.0279 24.9788 66.7213C24.7065 66.8516 23.1893 67.3596 22.9948 67.3596H19.8438V67.3336Z" fill="black"/>
<path d="M124.605 69.6393L125.358 69.6653C125.734 72.0231 127.03 73.7556 129.611 73.6645C131.31 73.6124 132.671 72.2837 132.425 70.5251C131.958 67.2033 123.97 68.3627 124.839 63.2954C125.526 59.2963 131.621 59.2703 134.448 60.7553V63.6862L134.201 63.9077L133.67 63.8556C133.242 61.3936 131.465 60.0649 128.962 60.7943C127.523 61.2112 126.991 63.2433 128.003 64.2854C129.779 66.1091 134.759 65.6402 135.2 69.2485C135.887 74.9541 128.249 75.2537 124.605 73.4039V69.6263V69.6393Z" fill="black"/>
<path d="M118.835 62.8525C111.145 60.5077 112.676 68.519 112.844 73.3518L113.778 73.4169L113.92 74.1204H108.695V73.1564H109.771V61.2242C109.486 60.8464 108.967 61.0158 108.539 60.9897V60.2212H112.689V62.618C112.689 62.618 112.909 62.9306 113 62.7743C113.882 61.0939 115.658 60.0518 117.538 59.9215C117.966 59.8955 118.563 59.8043 118.848 60.156V62.8525H118.835Z" fill="black"/>
<path d="M121.895 59.8953V73.3517H122.972V74.1202H117.746L117.914 73.3647L118.822 73.3386V61.224C118.576 60.8723 116.968 61.0026 116.592 60.9896L118.109 59.8823H121.895V59.8953Z" fill="black"/>
<path d="M119.769 55.0104C122.245 54.5806 122.582 57.9284 120.624 58.3322C118.109 58.8532 117.629 55.3882 119.769 55.0104Z" fill="black"/>
<path d="M67.6529 80.7117C67.6529 79.1355 68.807 77.8589 70.4149 77.8589C71.4134 77.8589 71.9969 78.2106 72.5545 78.7317L72.1266 79.1876C71.6597 78.7447 71.154 78.432 70.4019 78.432C69.196 78.432 68.2883 79.4221 68.2883 80.6856C68.2883 81.9752 69.209 82.9652 70.4019 82.9652C71.154 82.9652 71.6468 82.6787 72.1655 82.1706L72.5675 82.5745C71.9969 83.1606 71.3745 83.5384 70.376 83.5384C68.794 83.5384 67.627 82.2879 67.627 80.7117H67.6529Z" fill="black"/>
<path d="M73.2942 82.2749C73.2942 81.4021 73.9944 80.9462 75.0189 80.9462C75.5375 80.9462 75.9006 81.0113 76.2637 81.1156V80.9723C76.2637 80.2428 75.8228 79.865 75.0578 79.865C74.578 79.865 74.2019 79.9953 73.8259 80.1646L73.6443 79.6696C74.0852 79.4612 74.5261 79.3309 75.1096 79.3309C75.6931 79.3309 76.1211 79.4742 76.4193 79.7738C76.6916 80.0474 76.8343 80.4382 76.8343 80.9592V83.4473H76.2507V82.835C75.9655 83.1998 75.4986 83.5385 74.7854 83.5385C74.0333 83.5385 73.2812 83.1086 73.2812 82.2749H73.2942ZM76.2767 81.9623V81.5715C75.9784 81.4803 75.5764 81.4021 75.0837 81.4021C74.3316 81.4021 73.9037 81.7278 73.9037 82.2358C73.9037 82.7569 74.3705 83.0565 74.9151 83.0565C75.6543 83.0565 76.2637 82.6006 76.2637 81.9623H76.2767Z" fill="black"/>
<path d="M78.3515 79.9302H77.7939V79.4091H78.3515V79.0574C78.3515 78.5884 78.4812 78.2367 78.7016 78.0153C78.9091 77.8068 79.2074 77.7026 79.5705 77.7026C79.8557 77.7026 80.0373 77.7287 80.2318 77.8068V78.3279C80.0113 78.2628 79.8428 78.2237 79.6483 78.2237C79.1814 78.2237 78.948 78.5103 78.948 79.0834V79.4091H80.2318V79.9302H78.961V83.4603H78.3645V79.9302H78.3515Z" fill="black"/>
<path d="M80.6729 81.4283C80.6729 80.2429 81.4898 79.305 82.6179 79.305C83.8109 79.305 84.4982 80.2689 84.4982 81.4543C84.4982 81.5325 84.4982 81.5846 84.4982 81.6497H81.2953C81.386 82.5355 81.9955 83.0305 82.7217 83.0305C83.2793 83.0305 83.6683 82.8091 83.9925 82.4574L84.3685 82.796C83.9665 83.252 83.4738 83.5516 82.7087 83.5516C81.5935 83.5516 80.6858 82.6918 80.6858 81.4413L80.6729 81.4283ZM83.8887 81.1938C83.8239 80.4513 83.4089 79.813 82.605 79.813C81.9047 79.813 81.3731 80.3992 81.2953 81.1938H83.9017H83.8887ZM83.0977 77.6376L83.7201 77.9242L82.8254 78.7709H82.3586L83.0977 77.6376Z" fill="black"/>
<path d="M91.0854 82.6787C90.5797 83.2258 90.0091 83.5384 89.2959 83.5384C88.3104 83.5384 87.5713 82.9132 87.5713 82.0013C87.5713 81.2588 88.0511 80.7247 88.8939 80.3991C88.5179 79.9562 88.3493 79.6175 88.3493 79.1876C88.3493 78.4451 88.9328 77.8719 89.8016 77.8719C90.5667 77.8719 91.1243 78.4321 91.1243 79.1095C91.1243 79.8259 90.6315 80.2688 89.8405 80.5554L91.0854 81.832C91.3318 81.4803 91.5522 81.0634 91.7467 80.6075L92.2524 80.842C92.0061 81.363 91.7597 81.832 91.4614 82.2228L92.421 83.1998L91.9542 83.5645L91.0984 82.6787H91.0854ZM90.7093 82.2879L89.2441 80.7768C88.5179 81.0374 88.1937 81.4933 88.1937 81.9492C88.1937 82.5484 88.6605 83.0044 89.3348 83.0044C89.8535 83.0044 90.3074 82.7308 90.7093 82.2879ZM90.5537 79.1485C90.5537 78.6926 90.2296 78.367 89.7757 78.367C89.283 78.367 88.9458 78.7187 88.9458 79.1616C88.9458 79.5003 89.0755 79.7478 89.4904 80.1907C90.1907 79.9562 90.5408 79.6175 90.5408 79.1485H90.5537Z" fill="black"/>
<path d="M95.5455 80.7117C95.5455 79.1355 96.6995 77.8589 98.3075 77.8589C99.3059 77.8589 99.8895 78.2106 100.447 78.7317L100.019 79.1876C99.5523 78.7447 99.0466 78.432 98.2945 78.432C97.0886 78.432 96.1809 79.4221 96.1809 80.6856C96.1809 81.9752 97.1015 82.9652 98.2945 82.9652C99.0466 82.9652 99.5394 82.6787 100.058 82.1706L100.46 82.5745C99.8895 83.1606 99.267 83.5384 98.2686 83.5384C96.6866 83.5384 95.5195 82.2879 95.5195 80.7117H95.5455Z" fill="black"/>
<path d="M101.161 81.4413C101.161 80.2819 102.056 79.3049 103.275 79.3049C104.494 79.3049 105.375 80.2689 105.375 81.4152C105.375 82.5746 104.481 83.5515 103.262 83.5515C102.043 83.5515 101.161 82.5876 101.161 81.4413ZM104.766 81.4413C104.766 80.5555 104.118 79.839 103.262 79.839C102.406 79.839 101.784 80.5555 101.784 81.4152C101.784 82.301 102.419 83.0044 103.275 83.0044C104.131 83.0044 104.766 82.301 104.766 81.4413Z" fill="black"/>
<path d="M106.464 79.3961H107.06V80.0995C107.32 79.6566 107.748 79.3049 108.448 79.3049C109.42 79.3049 109.991 79.9693 109.991 80.9332V83.4604H109.394V81.0896C109.394 80.334 108.992 79.8651 108.279 79.8651C107.566 79.8651 107.073 80.3731 107.073 81.1417V83.4604H106.477V79.3961H106.464Z" fill="black"/>
<path d="M110.73 79.396H111.392L112.753 82.7698L114.128 79.396H114.776L113.013 83.4863H112.481L110.73 79.396Z" fill="black"/>
<path d="M115.243 81.4282C115.243 80.2428 116.06 79.3049 117.188 79.3049C118.381 79.3049 119.068 80.2689 119.068 81.4543C119.068 81.5324 119.068 81.5846 119.068 81.6497H115.866C115.956 82.5355 116.566 83.0305 117.292 83.0305C117.85 83.0305 118.239 82.809 118.563 82.4573L118.939 82.796C118.537 83.2519 118.044 83.5515 117.279 83.5515C116.164 83.5515 115.256 82.6918 115.256 81.4413L115.243 81.4282ZM118.446 81.1938C118.381 80.4513 117.966 79.813 117.162 79.813C116.462 79.813 115.93 80.3992 115.853 81.1938H118.459H118.446Z" fill="black"/>
<path d="M120.118 79.3959H120.715V80.4511C121.013 79.7737 121.597 79.2917 122.362 79.3178V79.9691H122.31C121.428 79.9691 120.702 80.6074 120.702 81.8319V83.4472H120.105V79.3829L120.118 79.3959Z" fill="black"/>
<path d="M122.945 82.9393L123.257 82.5094C123.697 82.8351 124.177 83.0305 124.657 83.0305C125.137 83.0305 125.5 82.783 125.5 82.3922C125.5 81.9623 125.02 81.806 124.488 81.6627C123.853 81.4803 123.153 81.2589 123.153 80.5164C123.153 79.7999 123.736 79.344 124.527 79.344C125.02 79.344 125.565 79.5133 125.98 79.7869L125.707 80.2428C125.331 79.9953 124.903 79.852 124.514 79.852C124.035 79.852 123.736 80.0995 123.736 80.4382C123.736 80.842 124.242 80.9853 124.774 81.1547C125.396 81.337 126.07 81.5845 126.07 82.314C126.07 83.0956 125.435 83.5515 124.631 83.5515C124.048 83.5515 123.412 83.3301 122.958 82.9523L122.945 82.9393Z" fill="black"/>
<path d="M126.874 82.2749C126.874 81.4021 127.575 80.9462 128.599 80.9462C129.118 80.9462 129.481 81.0113 129.844 81.1156V80.9723C129.844 80.2428 129.403 79.865 128.638 79.865C128.158 79.865 127.782 79.9953 127.406 80.1646L127.224 79.6696C127.665 79.4612 128.106 79.3309 128.69 79.3309C129.273 79.3309 129.701 79.4742 129.999 79.7738C130.272 80.0474 130.414 80.4382 130.414 80.9592V83.4473H129.831V82.835C129.546 83.1998 129.079 83.5385 128.366 83.5385C127.613 83.5385 126.861 83.1086 126.861 82.2749H126.874ZM129.857 81.9623V81.5715C129.559 81.4803 129.157 81.4021 128.664 81.4021C127.912 81.4021 127.484 81.7278 127.484 82.2358C127.484 82.7569 127.951 83.0565 128.495 83.0565C129.234 83.0565 129.844 82.6006 129.844 81.9623H129.857Z" fill="black"/>
<path d="M131.88 82.3791V79.9301H131.322V79.396H131.88V78.1715H132.476V79.396H133.76V79.9301H132.476V82.3009C132.476 82.7959 132.749 82.9783 133.151 82.9783C133.358 82.9783 133.527 82.9392 133.734 82.835V83.356C133.527 83.4602 133.293 83.5254 133.008 83.5254C132.36 83.5254 131.867 83.1997 131.867 82.3791H131.88Z" fill="black"/>
<path d="M134.85 77.8329H135.537V78.4972H134.85V77.8329ZM134.889 79.3961H135.485V83.4603H134.889V79.3961Z" fill="black"/>
<path d="M136.639 81.4413C136.639 80.2819 137.533 79.3049 138.752 79.3049C139.971 79.3049 140.853 80.2689 140.853 81.4152C140.853 82.5746 139.958 83.5515 138.739 83.5515C137.52 83.5515 136.639 82.5876 136.639 81.4413ZM140.244 81.4413C140.244 80.5555 139.595 79.839 138.739 79.839C137.884 79.839 137.261 80.5555 137.261 81.4152C137.261 82.301 137.896 83.0044 138.752 83.0044C139.608 83.0044 140.244 82.301 140.244 81.4413Z" fill="black"/>
<path d="M141.942 79.3961H142.539V80.0995C142.798 79.6566 143.226 79.3049 143.926 79.3049C144.899 79.3049 145.469 79.9693 145.469 80.9332V83.4604H144.873V81.0896C144.873 80.334 144.471 79.8651 143.758 79.8651C143.045 79.8651 142.552 80.3731 142.552 81.1417V83.4604H141.955V79.3961H141.942Z" fill="black"/>
<path d="M146.429 82.9393L146.74 82.5094C147.181 82.8351 147.661 83.0305 148.14 83.0305C148.62 83.0305 148.983 82.783 148.983 82.3922C148.983 81.9623 148.503 81.806 147.972 81.6627C147.336 81.4803 146.636 81.2589 146.636 80.5164C146.636 79.7999 147.22 79.344 148.011 79.344C148.503 79.344 149.048 79.5133 149.463 79.7869L149.191 80.2428C148.815 79.9953 148.387 79.852 147.998 79.852C147.518 79.852 147.22 80.0995 147.22 80.4382C147.22 80.842 147.725 80.9853 148.257 81.1547C148.88 81.337 149.554 81.5845 149.554 82.314C149.554 83.0956 148.918 83.5515 148.114 83.5515C147.531 83.5515 146.896 83.3301 146.442 82.9523L146.429 82.9393Z" fill="black"/>
<path d="M116.333 36.0832C116.281 34.3247 115.905 32.3186 115.464 30.2604H115.49C111.392 12.4402 95.7798 0 77.5609 0C56.0872 0 38.6074 17.5466 38.6074 39.1184C38.6074 40.2387 38.6074 44.0424 40.1116 47.5725L41.2268 47.5204L66.6684 46.7779C74.0209 46.2178 82.9423 46.4392 85.03 49.1227C85.3672 49.5265 85.821 49.774 86.3267 49.8131H86.8973L101.006 49.7479H104.325V48.4193L102.756 48.3802L92.2398 48.1066H92.2009C91.7729 48.1066 91.4228 47.6637 91.4358 47.1557C91.4358 46.6346 91.7989 46.2308 92.2398 46.2438H92.2787L104.234 45.7488H104.312V44.4332H104.221L92.2787 44.0684H92.2398C91.8119 44.0815 91.4488 43.6776 91.4358 43.1696C91.4358 42.7267 91.6692 42.362 92.0064 42.2447C92.0712 42.2187 92.136 42.2056 92.2009 42.2056H92.2398L97.4007 42.0233L102.691 41.8279L104.312 41.7627V40.4471L101.33 40.4601H100.863L86.9492 40.5383H86.2878C85.7821 40.5773 85.3283 40.8379 84.9911 41.2417C82.9423 43.9512 74.1246 43.8339 66.7722 43.3389L59.8347 43.0524L58.5639 43.0003L41.2268 42.7267C40.9026 40.8769 40.9026 39.7436 40.9026 39.1184C40.9026 18.8102 57.345 2.29265 77.5609 2.29265C94.535 2.29265 109.071 13.7559 113.13 30.2213C106.011 30.5861 85.5357 31.1332 84.4854 31.1853C84.4724 31.1853 82.4106 31.2244 81.4122 30.078C79.8172 28.2283 75.2268 25.2843 69.7028 25.2843H69.6768C61.4686 25.2843 57.1765 29.1141 57.1894 32.8787C57.1894 37.8418 63.4655 40.434 69.6768 40.434H69.7028C75.2398 40.434 79.8302 37.477 81.4251 35.6143C82.4106 34.4549 84.4724 34.494 84.4854 34.494C84.7447 34.494 106.141 35.6403 114.025 35.979C114.154 37.5552 114.53 43.2347 113.7 47.3381C113.571 47.9633 113.973 48.5625 114.595 48.6928C114.673 48.7058 114.751 48.7189 114.829 48.7189C115.36 48.7189 115.84 48.3411 115.944 47.807C116.813 43.5864 116.488 38.0632 116.333 36.0702V36.0832Z" fill="black"/>
<path d="M101.614 27.3555C101.796 27.3555 101.99 27.3034 102.159 27.2122C102.716 26.9126 102.911 26.2092 102.613 25.649C102.366 25.1931 101.718 24.0338 101.082 23.0828C100.732 22.5618 100.019 22.4185 99.5005 22.7702C98.9818 23.1219 98.8391 23.8384 99.1892 24.3594C99.7728 25.2322 100.382 26.3134 100.616 26.7433C100.823 27.121 101.212 27.3425 101.614 27.3425V27.3555Z" fill="black"/>
<path d="M77.7939 13.1177C86.3911 13.1177 90.9167 15.8663 96.2721 20.9205C96.726 21.3504 97.4521 21.3374 97.893 20.8684C98.3209 20.4125 98.308 19.683 97.8412 19.2401C92.2004 13.8993 87.1043 10.812 77.7939 10.812C62.713 10.812 50.1348 23.135 49.7717 38.2717C49.7588 38.91 50.2515 39.4311 50.8869 39.4441C50.8869 39.4441 50.8999 39.4441 50.9128 39.4441C51.5353 39.4441 52.041 38.9491 52.054 38.3238C52.3911 24.4116 63.9449 13.1047 77.7939 13.1047V13.1177Z" fill="black"/>
</svg>
