<?xml version="1.0" encoding="UTF-8"?>
<svg id="Layer_2" data-name="Layer 2" xmlns="http://www.w3.org/2000/svg" viewBox="0 0 1078.21 342.06">
  <defs>
    <style>
      .cls-1 {
        fill: #231f20;
      }
    </style>
  </defs>
  <g id="Layer_1-2" data-name="Layer 1">
    <g>
      <path class="cls-1" d="M35.96,331.39c-2.56,4.97-6.8,7.38-12.98,7.38-8.98,0-13.34-5.83-13.34-17.81,0-5.11,1.2-9.51,3.55-13.09,2.43-3.68,5.41-5.47,9.08-5.48,6.67,0,10.74,3.33,12.44,10.18l.17.69,2.59-.26-.8-13.2h-2.65l-.05.77c-.03.55-.22.68-.28.72-.17.12-.79.33-2.43-.24h0c-3.51-1.19-6.47-1.8-8.8-1.8-4.37,0-8.35,1-11.82,2.99-3.48,1.98-6.15,4.63-7.95,7.87-1.79,3.26-2.7,6.91-2.7,10.85s.96,7.36,2.85,10.57c1.92,3.27,4.55,5.83,7.81,7.61,3.36,1.83,7.39,2.76,11.97,2.76,7.8,0,13.14-3.2,15.86-9.5l.37-.86-2.59-.75-.31.6Z"/>
      <path class="cls-1" d="M77.8,334.66l-14.46-34.82h-2.97l-13.25,34.84c-.98,2.54-2.61,3.77-4.97,3.77h-.97s0,2.85,0,2.85h11.74v-2.85h-.82c-.86,0-1.98-.12-2.38-.71-.4-.59-.1-1.65.22-2.46l2.75-7.19h12.97l2.91,7.2c.47,1.16.55,2.01.23,2.48-.39.55-1.41.68-2.25.68h-.95s0,2.85,0,2.85h18.01v-2.83l-.8-.02c-2.29-.06-3.93-1.31-5.01-3.78M53.78,325.29c.73-1.92,2.35-6.15,4.84-12.67l.38-.99c2.76,6.87,4.63,11.52,5.51,13.67h-10.73Z"/>
      <path class="cls-1" d="M88.96,299.84v2.73h.81c2.9.06,4.18,1.35,4.16,4.19v27.67c0,1.45-.34,2.52-1.01,3.17-.67.66-1.71.97-3.13.95h-.84s0,2.74,0,2.74h18.61v-2.63l-.85.03c-1.29.12-2.43-.25-3.1-.9-.71-.68-1.06-1.81-1.06-3.36v-13.92h4.24c2.12,0,4.94.68,5.01,6.57v.81h2.71v-17.54h-2.7v.81c-.08,5.79-2.9,6.46-5.02,6.46h-4.24v-14.93h7.96c5.48,0,8.32,2.51,8.67,7.69l.06.89,2.7-.41-.7-11.02h-32.29Z"/>
      <path class="cls-1" d="M162.68,328.99c-.35,6.46-4.38,9.59-12.31,9.59-7.31,0-8.15-3.34-8.15-5.85v-12.22h4.24c3.42,0,5.01,1.67,5.01,5.25v.82h2.71v-14.91h-2.71v.82c0,3.5-1.59,5.14-5.01,5.14h-4.24v-14.93h9.16c5.48,0,8.32,2.51,8.67,7.69l.06.89,2.7-.41-.7-11.02h-33.5v2.76h.84s.15-.01.15-.01c1.34,0,2.34.32,2.98.95.68.67,1.01,1.76,1,3.23v27.67c0,2.79-1.29,4.06-4.17,4.13l-.8.02v2.72h35.96l.77-12.93-2.63-.23-.04.85Z"/>
      <polygon class="cls-1" points="154.48 287.91 146.12 287.91 140.1 297.31 142.95 299.14 154.48 287.91"/>
      <path class="cls-1" d="M173.44,333.96c-.93.89-1.4,2.03-1.4,3.37s.47,2.48,1.4,3.39c.92.89,2.04,1.35,3.32,1.35s2.4-.46,3.3-1.36c.89-.9,1.35-2.03,1.35-3.37s-.48-2.47-1.36-3.27c-1.74-1.89-4.74-1.88-6.6-.1"/>
      <path class="cls-1" d="M251.32,331.39c-2.56,4.97-6.8,7.38-12.98,7.38-8.98,0-13.34-5.83-13.34-17.81,0-5.11,1.2-9.51,3.55-13.09,2.43-3.68,5.41-5.47,9.08-5.48,6.67,0,10.74,3.33,12.44,10.18l.17.69,2.59-.26-.8-13.2h-2.65l-.05.77c-.03.55-.22.68-.28.72-.17.12-.79.33-2.43-.24h0c-3.51-1.19-6.47-1.8-8.8-1.8-4.37,0-8.35,1-11.82,2.99-3.48,1.98-6.15,4.63-7.95,7.87-1.79,3.26-2.7,6.91-2.7,10.85s.96,7.36,2.85,10.57c1.92,3.27,4.55,5.83,7.81,7.61,3.36,1.83,7.39,2.76,11.97,2.76,7.8,0,13.14-3.2,15.86-9.5l.37-.86-2.59-.75-.31.6Z"/>
      <path class="cls-1" d="M282.77,299.16c-4.29.02-8.19,1.04-11.57,3.01-3.39,1.98-6.04,4.65-7.89,7.95-1.77,3.23-2.67,6.9-2.67,10.93,0,5.86,2.08,10.88,6.18,14.9,4.08,4.04,9.2,6.1,15.22,6.1,3.91,0,7.61-.95,10.99-2.84,3.34-1.85,6.03-4.49,7.99-7.83,1.95-3.31,2.94-7.05,2.94-11.12,0-6.3-1.88-11.44-5.59-15.27-3.76-3.87-9-5.83-15.59-5.83M270.17,321c0-3.46.53-6.64,1.59-9.45,1.04-2.79,2.54-5.06,4.44-6.73,1.91-1.67,4.01-2.48,6.41-2.48,3.68,0,6.5,1.57,8.64,4.81,2.14,3.23,3.23,7.67,3.23,13.16,0,3.53-.59,6.76-1.74,9.6-1.16,2.86-2.71,5.11-4.6,6.68-1.9,1.55-3.93,2.33-6.04,2.33-3.28,0-6-1.65-8.32-5.05-2.39-3.5-3.6-7.82-3.6-12.86"/>
      <path class="cls-1" d="M310.68,299.84v2.73h.81c2.9.06,4.18,1.35,4.16,4.19v27.67c0,1.45-.34,2.52-1.01,3.17-.67.66-1.75.97-3.13.95h-.84s0,2.74,0,2.74h18.61v-2.63l-.85.03c-1.31.12-2.43-.25-3.1-.9-.71-.68-1.06-1.81-1.06-3.36v-13.92h4.24c2.12,0,4.94.68,5.01,6.57v.81h2.71v-17.54h-2.7v.81c-.08,5.79-2.9,6.46-5.02,6.46h-4.24v-14.93h7.96c5.48,0,8.32,2.51,8.67,7.69l.06.89,2.7-.41-.7-11.02h-32.29Z"/>
      <path class="cls-1" d="M350.34,299.84v2.73h.81c2.9.06,4.18,1.35,4.16,4.19v27.67c0,1.45-.34,2.52-1.01,3.17-.67.66-1.69.97-3.13.95h-.84s0,2.74,0,2.74h18.61v-2.63l-.85.03c-1.29.12-2.43-.25-3.1-.9-.71-.68-1.06-1.81-1.06-3.36v-13.92h4.24c2.12,0,4.94.68,5.01,6.57v.81h2.71v-17.54h-2.7v.81c-.08,5.79-2.9,6.46-5.02,6.46h-4.24v-14.93h7.96c5.48,0,8.32,2.51,8.67,7.69l.06.89,2.7-.41-.7-11.02h-32.29Z"/>
      <path class="cls-1" d="M424.07,328.99c-.35,6.46-4.38,9.59-12.31,9.59-7.31,0-8.15-3.34-8.15-5.85v-12.22h4.24c3.42,0,5.01,1.67,5.01,5.25v.82h2.71v-14.91h-2.71v.82c0,3.5-1.59,5.14-5.01,5.14h-4.24v-14.93h9.16c5.48,0,8.32,2.51,8.67,7.69l.06.89,2.7-.41-.7-11.02h-33.5v2.76h.84s.15-.01.15-.01c1.34,0,2.34.32,2.98.95.68.67,1.01,1.76,1,3.23v27.67c0,2.79-1.29,4.06-4.17,4.13l-.8.02v2.72h35.96l.77-12.93-2.63-.23-.04.85Z"/>
      <path class="cls-1" d="M467.48,328.99c-.35,6.46-4.38,9.59-12.31,9.59-7.31,0-8.15-3.34-8.15-5.85v-12.22h4.24c3.42,0,5.01,1.67,5.01,5.25v.82h2.71v-14.91h-2.71v.82c0,3.5-1.59,5.14-5.01,5.14h-4.24v-14.93h9.16c5.48,0,8.32,2.51,8.67,7.69l.06.89,2.7-.41-.7-11.02h-33.5v2.76h.84c1.39.03,2.48.28,3.14.93.68.67,1.01,1.76,1,3.23v27.67c0,2.79-1.29,4.06-4.17,4.13l-.8.02v2.72h35.96l.77-12.93-2.63-.23-.04.85Z"/>
      <path class="cls-1" d="M478.23,333.96c-.93.89-1.4,2.03-1.4,3.37s.47,2.48,1.4,3.39c.92.89,2.04,1.35,3.32,1.35s2.4-.46,3.3-1.36c.89-.9,1.35-2.03,1.35-3.37s-.48-2.47-1.36-3.27c-1.74-1.89-4.74-1.88-6.6-.1"/>
      <g>
        <path class="cls-1" d="M556.12,331.39c-2.56,4.97-6.8,7.38-12.98,7.38-8.98,0-13.34-5.83-13.34-17.81,0-5.11,1.2-9.51,3.55-13.09,2.43-3.68,5.41-5.47,9.08-5.48,6.67,0,10.74,3.33,12.44,10.18l.17.69,2.59-.26-.8-13.2h-2.65l-.05.77c-.03.55-.22.68-.28.72-.17.12-.79.33-2.43-.24h0c-3.51-1.19-6.47-1.8-8.8-1.8-4.37,0-8.35,1-11.82,2.99-3.48,1.98-6.15,4.63-7.95,7.87-1.79,3.26-2.7,6.91-2.7,10.85s.96,7.36,2.85,10.57c1.92,3.27,4.55,5.83,7.81,7.61,3.36,1.83,7.39,2.76,11.97,2.76,7.8,0,13.14-3.2,15.86-9.5l.37-.86-2.59-.75-.31.6Z"/>
        <path class="cls-1" d="M587.57,299.16c-4.29.02-8.19,1.04-11.57,3.01-3.39,1.98-6.04,4.65-7.89,7.95-1.77,3.23-2.67,6.9-2.67,10.93,0,5.86,2.08,10.88,6.18,14.9,4.08,4.04,9.2,6.1,15.22,6.1,3.91,0,7.61-.95,10.99-2.84,3.34-1.85,6.03-4.49,7.99-7.83,1.95-3.31,2.94-7.05,2.94-11.12,0-6.3-1.88-11.44-5.59-15.27-3.76-3.87-9-5.83-15.59-5.83M574.96,321c0-3.46.53-6.64,1.59-9.45,1.04-2.79,2.54-5.06,4.44-6.73,1.91-1.67,4.01-2.48,6.41-2.48,3.68,0,6.5,1.57,8.64,4.81,2.14,3.23,3.23,7.67,3.23,13.16,0,3.53-.59,6.76-1.74,9.6-1.16,2.86-2.71,5.11-4.6,6.68-1.9,1.55-3.93,2.33-6.04,2.33-3.28,0-6-1.65-8.32-5.05-2.39-3.5-3.6-7.82-3.6-12.86"/>
        <path class="cls-1" d="M641.27,302.59h.82c2.9,0,4.18,1.29,4.18,4.18v19.01c-7.76-10.34-13.22-17.87-16.67-23-1.07-1.33-1.19-1.92-1.19-2.11v-.82h-15.57v2.74h.82c2.79,0,4.05,1.29,4.07,4.18v27.6c-.02,2.92-1.27,4.22-4.07,4.22h-.82v2.72h12.81v-2.66h-.82c-1.4,0-2.45-.33-3.12-1-.68-.69-1.02-1.78-1.02-3.27v-26.87l24.89,33.46.25.33h3.34v-34.53c0-1.44.34-2.51,1-3.17.64-.64,1.65-.96,3.01-.96h.91s0-2.79,0-2.79h-12.84v2.74Z"/>
        <path class="cls-1" d="M688.83,302.59h.82c1.16,0,1.92.24,2.25.73.4.59.31,1.67-.26,3.15l-8.88,23.1-9.76-23.12c-.4-.97-.78-2.27-.29-3.01.47-.71,1.76-.86,2.76-.86h.82v-2.72h-18.11v2.72h.82c1.99,0,3.57,1.47,4.85,4.51l14.5,33.71.22.5h2.94l12.98-34.25c1.13-3.01,2.85-4.47,5.22-4.47h.82v-2.72h-11.72v2.72Z"/>
        <path class="cls-1" d="M739.96,328.99c-.35,6.46-4.38,9.59-12.31,9.59-7.31,0-8.15-3.34-8.15-5.85v-12.22h4.24c3.42,0,5.01,1.67,5.01,5.25v.82h2.71v-14.91h-2.71v.82c0,3.5-1.59,5.14-5.01,5.14h-4.24v-14.93h9.16c5.48,0,8.32,2.51,8.67,7.69l.06.89,2.7-.41-.7-11.02h-33.5v2.76h.84c1.38.03,2.48.28,3.14.93.68.67,1.01,1.76,1,3.23v27.67c0,2.79-1.29,4.06-4.17,4.13l-.8.02v2.72h35.96l.77-12.93-2.63-.23-.04.85Z"/>
        <path class="cls-1" d="M782,331.93l-3.75-7.49c-.75-1.51-1.71-2.61-2.86-3.32,1.82-.65,3.39-1.64,4.71-2.95,2.05-2.05,3.1-4.48,3.1-7.23,0-3.08-1.29-5.74-3.83-7.91-2.53-2.12-5.57-3.21-9.06-3.21h-20.98v2.77h.82c1.42,0,2.47.33,3.13,1,.67.67,1,1.73.99,3.17v27.67c0,1.43-.33,2.48-1,3.15-.65.65-1.69.98-3.06.98h-.88s0,2.74,0,2.74h18.58v-2.74h-.82c-1.44,0-2.5-.33-3.15-1-.66-.66-.98-1.71-.98-3.12v-12.39h.27c1.67,0,3.01.33,3.98.98,1.09.73,1.88,1.64,2.41,2.77l3.47,7.8c1.35,2.97,2,5.28,1.93,6.85l-.03.86h15.28v-2.74h-.82c-2.75,0-5.24-2.23-7.42-6.63M762.94,302.75h1.75c2.84,0,5.18.8,6.95,2.38,1.77,1.57,2.63,3.49,2.63,5.85s-.86,4.25-2.63,5.83c-1.77,1.58-4.11,2.38-6.95,2.38h-1.75v-16.44Z"/>
        <path class="cls-1" d="M820.72,317.82c-1.35-.79-3.78-1.82-7.43-3.17-4.4-1.6-6.04-2.67-6.66-3.3-.66-.65-1.07-1.37-1.24-2.21-.23-1.04-.2-2,.11-3,.23-.95.68-1.68,1.4-2.25,1.21-1.03,2.81-1.57,4.78-1.6,2.84-.1,5,.82,6.7,2.88,1.33,1.58,2.36,3.9,3.08,6.89l.17.7,2.53-.27-.97-12.64h-2.64l-.02.8c0,.17-.03.48-.17.57-.1.06-.65.3-2.55-.54h0c-2.14-.94-4.31-1.42-6.43-1.42-4.09,0-7.49,1.15-10.14,3.46-2.31,2.17-3.48,4.94-3.48,8.24.03,4.62,3,8.45,8.81,11.39.97.51,2.41,1.13,4.42,1.91,1.91.72,3.53,1.46,4.83,2.19,1.29.75,2.23,1.48,2.76,2.15.6.83.95,1.73,1.04,2.67.1,1.27-.03,2.37-.39,3.3-.37,1.06-1,1.89-1.95,2.56-1.54,1.11-3.55,1.62-6.08,1.52-3.17-.12-5.81-1.19-7.82-3.19-1.75-1.74-3.02-4.22-3.78-7.38l-.15-.63h-2.46v13.85h2.59l.04-.77c.07-1.2.36-1.72.59-1.94.34-.32.59-.32.8-.24.54.17,1.29.53,2.22,1.07,2.67,1.52,5.37,2.34,8,2.46.36.02.71.03,1.06.03,4.09,0,7.49-1.23,10.13-3.67,2.73-2.56,4.22-5.72,4.42-9.4.12-2.65-.37-4.9-1.44-6.69-1.04-1.64-2.61-3.1-4.66-4.32"/>
        <path class="cls-1" d="M863.6,334.66l-14.46-34.82h-2.97l-13.25,34.84c-.98,2.54-2.61,3.77-4.97,3.77h-.97s0,2.85,0,2.85h11.74v-2.85h-.82c-.86,0-1.98-.12-2.38-.71-.4-.59-.1-1.65.22-2.46l2.75-7.19h12.97l2.91,7.2c.47,1.16.55,2.01.23,2.48-.39.55-1.41.68-2.25.68h-.95s0,2.85,0,2.85h18.01v-2.83l-.8-.02c-2.29-.06-3.93-1.31-5.01-3.78M839.58,325.29c.73-1.92,2.35-6.15,4.84-12.67l.38-.99c2.75,6.87,4.63,11.52,5.51,13.67h-10.73Z"/>
        <path class="cls-1" d="M864.69,299.84l-.7,11.06,2.7.28.06-.85c.35-5.16,2.97-7.67,8.01-7.67h5.56v31.77c0,2.85-1.29,4.13-4.18,4.13h-.82v2.74h18.61v-2.74h-.82c-2.9,0-4.18-1.27-4.18-4.13v-31.77h5.55c5.05,0,7.67,2.5,8.01,7.67l.06.81,2.71-.15-.7-11.15h-39.85Z"/>
        <path class="cls-1" d="M911.91,302.58h.82c2.86.03,4.13,1.32,4.13,4.22v27.58c0,2.9-1.27,4.18-4.13,4.18h-.82v2.74h18.55v-2.74h-.82c-2.85,0-4.13-1.29-4.13-4.18v-27.58c0-2.91,1.27-4.21,4.13-4.21h.82v-2.74h-18.55v2.74Z"/>
        <path class="cls-1" d="M959.31,299.16c-4.29.02-8.19,1.04-11.57,3.01-3.39,1.98-6.04,4.65-7.89,7.95-1.77,3.23-2.67,6.9-2.67,10.93,0,5.86,2.08,10.88,6.18,14.9,4.08,4.04,9.2,6.1,15.22,6.1,3.91,0,7.61-.95,10.99-2.84,3.34-1.85,6.03-4.49,7.99-7.83,1.95-3.31,2.94-7.05,2.94-11.12,0-6.3-1.88-11.44-5.59-15.27-3.76-3.87-9-5.83-15.59-5.83M946.71,321c0-3.46.53-6.64,1.59-9.45,1.04-2.79,2.54-5.06,4.44-6.73,1.91-1.67,4.01-2.48,6.41-2.48,3.68,0,6.5,1.57,8.64,4.81,2.14,3.23,3.23,7.67,3.23,13.16,0,3.53-.59,6.76-1.74,9.6-1.16,2.86-2.71,5.11-4.6,6.68-1.9,1.55-3.93,2.33-6.04,2.33-3.28,0-6-1.65-8.32-5.05-2.39-3.5-3.6-7.82-3.6-12.86"/>
        <path class="cls-1" d="M1015.64,302.59h.82c2.9,0,4.18,1.29,4.18,4.18v19.01c-7.76-10.34-13.22-17.87-16.67-23-1.07-1.33-1.19-1.92-1.19-2.11v-.82h-15.57v2.74h.82c2.79,0,4.05,1.29,4.07,4.18v27.6c-.02,2.92-1.27,4.22-4.07,4.22h-.82v2.72h12.81v-2.66h-.82c-1.4,0-2.45-.33-3.12-1-.68-.69-1.02-1.78-1.02-3.27v-26.87l24.89,33.46.25.33h3.34v-34.53c0-1.44.34-2.51,1-3.17.64-.64,1.65-.96,3.01-.96h.91s0-2.79,0-2.79h-12.84v2.74Z"/>
        <path class="cls-1" d="M1063.61,322.14c-1.04-1.64-2.61-3.1-4.66-4.32-1.35-.79-3.78-1.82-7.43-3.17-4.4-1.6-6.04-2.67-6.66-3.3-.66-.65-1.07-1.37-1.24-2.21-.23-1.04-.2-2,.11-3,.23-.95.68-1.68,1.4-2.25,1.21-1.03,2.81-1.57,4.78-1.6,2.82-.1,5,.82,6.7,2.88,1.33,1.58,2.36,3.9,3.08,6.89l.17.7,2.53-.27-.97-12.64h-2.64l-.02.8c0,.17-.03.48-.17.57-.1.06-.65.3-2.55-.54h0c-2.14-.94-4.31-1.42-6.43-1.42-4.09,0-7.49,1.15-10.14,3.46-2.31,2.17-3.48,4.94-3.48,8.24.03,4.62,3,8.45,8.81,11.39.97.51,2.41,1.13,4.42,1.91,1.91.72,3.53,1.46,4.83,2.19,1.29.75,2.23,1.48,2.76,2.15.6.83.95,1.73,1.04,2.67.1,1.27-.03,2.37-.39,3.3-.37,1.06-1,1.89-1.95,2.56-1.54,1.11-3.59,1.62-6.08,1.52-3.17-.12-5.81-1.19-7.82-3.19-1.75-1.74-3.02-4.22-3.78-7.38l-.15-.63h-2.46v13.85h2.59l.05-.77c.07-1.2.36-1.73.59-1.94.34-.32.6-.32.8-.24.54.17,1.29.53,2.22,1.07,2.67,1.52,5.37,2.34,8,2.46.36.02.71.03,1.06.03,4.09,0,7.49-1.23,10.13-3.67,2.73-2.56,4.22-5.72,4.42-9.4.12-2.65-.37-4.9-1.44-6.69"/>
      </g>
      <path class="cls-1" d="M45.41,102.77v2.94c-8.87,0-13.3,4.49-13.3,13.45v69.73c0,11.9,8.01,17.86,24.03,17.86,5.97,0,11.26-.78,15.87-2.35,4.6-1.57,8.74-4.49,12.42-8.78,3.67-4.29,6-9.84,6.98-16.64l2.79.14-1.84,30.57H0l.07-2.72c8.82,0,13.23-4.51,13.23-13.52v-74.29c0-8.96-4.43-13.45-13.3-13.45v-2.94h45.41Z"/>
      <path class="cls-1" d="M163.52,144.29c6.52,6.96,9.92,16.17,10.21,27.63,0,11.02-3.7,20.36-11.09,28-7.35,7.64-16.12,11.46-26.3,11.46s-18.74-3.68-25.79-11.02c-6.95-7.3-10.43-16.31-10.43-27.04s3.5-20.35,10.51-27.99c7.05-7.74,16.09-11.59,27.11-11.54,10.78.05,19.37,3.56,25.79,10.51M124.58,147.89c-3.38,6.96-5.07,15.38-5.07,25.28s1.69,17.85,5.07,24.61c3.38,6.61,7.49,9.92,12.34,9.92s9.28-3.45,12.71-10.36c3.52-6.91,5.29-15.36,5.29-25.35s-1.49-18.74-4.48-25.06c-2.99-6.36-7.23-9.55-12.71-9.55s-9.68,3.51-13.15,10.51"/>
      <path class="cls-1" d="M247.55,140.32c4.31,4.36,6.47,10.6,6.47,18.74v32.47c0,10.29,3.38,15.5,10.14,15.65v2.5h-37.69v-2.5c6.76-.15,10.14-5.36,10.14-15.65v-34.9c.05-4.45-1.27-8.3-3.97-11.53-2.64-3.28-6.2-4.9-10.66-4.85-3.97,0-7.35,1.64-10.14,4.92-2.7,3.23-4.04,7.06-4.04,11.46v34.9c0,10.29,3.43,15.5,10.29,15.65v2.5h-38.43v-2.5c6.91-.15,10.36-5.36,10.36-15.65v-40.05c0-8.42-3.45-12.02-10.36-10.8v-2.57l25.87-4.11c1.27,1.27,2.03,4.58,2.28,9.92,5.68-6.61,12.93-9.92,21.75-9.92,7.49-.2,13.5,1.91,18,6.32"/>
      <path class="cls-1" d="M344.21,127.24c3.38,1.47,5.37,3.43,5.95,5.88.44,1.67.28,3.28-.48,4.85-.76,1.57-2.07,2.55-3.93,2.94-1.86.39-3.55.22-5.07-.51-1.57-.73-3.06-1.89-4.49-3.45-2.06-2.25-3.85-3.75-5.36-4.49-1.32-.73-2.92-.83-4.78-.29-1.67.34-3.26,1.49-4.78,3.45,6.61,1.76,11.51,4.61,14.69,8.52,3.58,4.11,5.37,9.36,5.37,15.72,0,7.35-3.34,13.77-9.99,19.25-6.37,4.9-14.26,7.37-23.66,7.42-6.96,0-13.03-1.32-18.22-3.97v-.3c-1.96,1.32-3.45,3.01-4.48,5.07-1.18,2.06-1.52,3.97-1.03,5.73,1.03,3.53,4.58,5.3,10.65,5.3h29.98c18.96,0,28.49,7.25,28.58,21.75,0,9.26-5.37,16.73-16.09,22.41-8.33,4.41-18.22,6.71-29.68,6.9-11.36.2-20.53-1.61-27.48-5.43-3.53-1.91-6.08-4.41-7.64-7.49-1.57-3.09-2.3-6.4-2.2-9.92.1-5.78,2.28-10.78,6.54-14.99-2.16-2.25-3.56-4.6-4.22-7.05-.66-2.45-.8-4.63-.4-6.54,1.37-6.61,6.54-12.19,15.5-16.75-3.67-2.3-6.66-5.26-8.96-8.89-2.35-3.63-3.53-7.54-3.53-11.76,0-7.64,3.16-14.01,9.48-19.1,6.12-5.15,14.15-7.72,24.1-7.72,1.96-.05,4.75.27,8.38.96,5.44-5.97,11.78-8.97,19.03-8.97,3.23.1,5.97.59,8.23,1.47M273.45,226.07c-.2,6.07,2.42,10.85,7.86,14.33,5.44,3.48,14.03,5.07,25.79,4.78,11.85-.29,21.78-3.21,29.76-8.74,1.91-1.42,3.45-3.06,4.63-4.92,1.18-1.86,1.72-3.93,1.62-6.21-.1-2.28-1.08-4.1-2.94-5.47-2.16-1.62-5.2-2.43-9.11-2.43h-36.23c-4.02,0-7.05-.34-9.11-1.03-2.06-.59-4.36-1.66-6.91-3.23-3.43,3.53-5.21,7.84-5.36,12.93M296.96,144.14c-2.65,4.61-3.97,10.14-3.97,16.61s1.4,12.22,4.19,16.38c2.89,4.26,6.52,6.39,10.88,6.39s7.66-2.28,10.51-6.83c3.09-4.36,4.63-9.97,4.63-16.83-.05-8.81-2.13-15.38-6.25-19.69-2.25-2.25-5.21-3.4-8.89-3.45-4.75-.05-8.45,2.42-11.09,7.42"/>
      <path class="cls-1" d="M463.9,102.77v2.94c-8.87,0-13.3,4.49-13.3,13.45v69.73c0,11.9,8.01,17.86,24.03,17.86,5.97,0,11.26-.78,15.87-2.35,4.6-1.57,8.74-4.49,12.42-8.78,3.67-4.29,6-9.84,6.98-16.64l2.79.14-1.84,30.57h-92.36l.07-2.72c8.82,0,13.23-4.51,13.23-13.52v-74.29c0-8.96-4.43-13.45-13.3-13.45v-2.94h45.41Z"/>
      <path class="cls-1" d="M578.27,145.32c2.06,4.02,3.06,9.31,3.01,15.87v36.89c0,4.56,1.23,7.2,3.68,7.93,2.79.59,6.14-.39,10.07-2.94l1.18,2.28c-5.49,3.67-10.85,5.51-16.09,5.51-9.9,0-15.14-3.65-15.72-10.95-1.91,3.09-4.95,5.8-9.11,8.16-4.02,2.25-8.87,3.35-14.55,3.3-6.32-.25-11.61-2.2-15.87-5.88-4.17-3.72-6.25-8.74-6.25-15.06,0-10.19,5.68-17.24,17.05-21.16,18.96-6.66,28.37-14.19,28.22-22.56-.1-6.37-5.02-9.55-14.77-9.55-3.97,0-6.81.81-8.52,2.42-.54.49-1.62,2.75-3.23,6.76-.83,2.06-1.84,3.7-3.01,4.92-1.08,1.23-2.37,1.99-3.9,2.28-1.61.39-3.23.05-4.85-1.03-1.37-1.03-2.2-2.49-2.5-4.41-.25-2.74,1.23-5.41,4.41-8.01,5.24-4.26,12.44-6.44,21.6-6.54,15.53,0,25.25,3.92,29.17,11.76M546.67,171.25c-3.63,1.72-6.3,4.19-8.01,7.42-1.72,3.18-2.55,6.81-2.5,10.88.15,4.02,1.23,7.57,3.23,10.65,2.11,3.09,5.17,4.61,9.19,4.56,4.9,0,8.64-2.4,11.24-7.2,2.69-4.85,4.04-11,4.04-18.45v-19.03c-2.75,3.09-8.47,6.81-17.19,11.17"/>
      <path class="cls-1" d="M651.49,135.62v3.53l-33.43,67.01h14.18c12.49,0,20.03-8.52,22.63-25.57h2.2l-2.13,29.1h-55.03v-3.38l32.4-67.16h-8.45c-11.66,0-18.18,6.52-19.55,19.55h-2.2l1.84-23.08h47.54Z"/>
      <path class="cls-1" d="M661.22,135.62h36.96v2.5c-5.73,0-6.49,5.14-2.28,15.43l13.74,33.36,14.77-33.95c4.26-9.85,2.7-14.79-4.7-14.84v-2.5h25.27v2.5c-7.05.2-12.74,5.34-17.05,15.43l-32.48,75.9c-2.59,6.07-5.51,10.43-8.74,13.08-3.23,2.64-6.72,4.26-10.47,4.85-3.75.59-6.99.34-9.74-.73-2.74-1.08-4.52-2.72-5.32-4.92-.81-2.2-.86-4.32-.15-6.36.71-2.03,2.04-3.34,4-3.93,3.04-.88,5.63-.05,7.78,2.49,2.16,2.5,3.92,3.99,5.3,4.49,2.25.83,4.31.75,6.17-.22,3.04-1.56,5.66-4.9,7.86-9.99l8.01-18.52-23.22-56.14c-4.26-10.28-9.51-15.43-15.73-15.43v-2.5Z"/>
      <path class="cls-1" d="M863.8,102.77c7.84,0,15.24,1.4,22.19,4.19,7.1,2.94,13.15,6.81,18.15,11.61,5,4.9,8.94,10.51,11.83,16.83,3.13,6.71,4.75,13.64,4.85,20.79.39,14.64-4.38,27.24-14.33,37.77-9.9,10.48-22.04,15.72-36.45,15.72h-62.53v-2.94c8.97-.15,13.45-4.58,13.45-13.3v-74.29c0-8.81-4.48-13.3-13.45-13.45v-2.94h56.28ZM839.63,188.89c0,11.61,6.88,17.41,20.65,17.41,5.59,0,10.63-.78,15.14-2.35,4.55-1.56,8.99-4.65,13.3-9.26,4.21-4.51,7.37-9.97,9.48-16.38,2.25-6.71,3.28-14.08,3.09-22.12-.44-13.96-5.02-25.79-13.74-35.49-4.21-4.7-9.5-8.33-15.87-10.87-6.37-2.55-12.71-3.82-19.03-3.82h-13v82.89Z"/>
      <path class="cls-1" d="M986.99,145.32c2.06,4.02,3.06,9.31,3.01,15.87v36.89c0,4.56,1.23,7.2,3.68,7.93,2.79.59,6.14-.39,10.07-2.94l1.18,2.28c-5.49,3.67-10.85,5.51-16.09,5.51-9.9,0-15.14-3.65-15.72-10.95-1.91,3.09-4.95,5.8-9.11,8.16-4.02,2.25-8.87,3.35-14.55,3.3-6.32-.25-11.61-2.2-15.87-5.88-4.17-3.72-6.25-8.74-6.25-15.06,0-10.19,5.68-17.24,17.05-21.16,18.96-6.66,28.37-14.19,28.22-22.56-.1-6.37-5.02-9.55-14.77-9.55-3.97,0-6.81.81-8.52,2.42-.54.49-1.62,2.75-3.23,6.76-.83,2.06-1.84,3.7-3.01,4.92-1.08,1.23-2.37,1.99-3.9,2.28-1.61.39-3.23.05-4.85-1.03-1.37-1.03-2.2-2.49-2.5-4.41-.25-2.74,1.23-5.41,4.41-8.01,5.24-4.26,12.44-6.44,21.6-6.54,15.53,0,25.25,3.92,29.17,11.76M955.39,171.25c-3.63,1.72-6.3,4.19-8.01,7.42-1.72,3.18-2.55,6.81-2.5,10.88.15,4.02,1.23,7.57,3.23,10.65,2.11,3.09,5.17,4.61,9.19,4.56,4.9,0,8.64-2.4,11.24-7.2,2.69-4.85,4.04-11,4.04-18.45v-19.03c-2.75,3.09-8.47,6.81-17.19,11.17"/>
      <path class="cls-1" d="M994.44,135.62h36.96v2.5c-5.73,0-6.49,5.14-2.28,15.43l13.74,33.36,14.77-33.95c4.26-9.85,2.7-14.79-4.7-14.84v-2.5h25.27v2.5c-7.05.2-12.74,5.34-17.05,15.43l-32.48,75.9c-2.59,6.07-5.51,10.43-8.74,13.08-3.23,2.64-6.72,4.26-10.47,4.85-3.75.59-6.99.34-9.74-.73-2.74-1.08-4.52-2.72-5.32-4.92-.81-2.2-.86-4.32-.15-6.36.71-2.03,2.04-3.34,4-3.93,3.04-.88,5.63-.05,7.78,2.49,2.16,2.5,3.92,3.99,5.3,4.49,2.25.83,4.31.75,6.17-.22,3.04-1.56,5.66-4.9,7.86-9.99l8.01-18.52-23.22-56.14c-4.26-10.28-9.51-15.43-15.73-15.43v-2.5Z"/>
      <path class="cls-1" d="M630.07,0c-3.12,5.41-6.41,10.73-9.33,16.24-6.71,12.66-6.54,25.15-.19,38.21,12.89,26.53,10.04,39.12-14.36,58.76,17.74-21.1,6.24-38.9-2.37-58.44-8.83-20.04,2.02-41.22,26.26-54.77"/>
      <path class="cls-1" d="M635.41,113.92c2.12-4.03,4.01-8.21,6.41-12.08,7.92-12.73,6.27-24.77-.62-37.6-9.88-18.4-7.12-28.7,11.48-43.04-11.49,15.6-3.85,28.57,2.87,42.38,10.9,22.41-3.47,36.98-20.14,50.33"/>
      <rect class="cls-1" x="0" y="264.13" width="1063.95" height="2.68"/>
    </g>
  </g>
</svg>
